<svg class="animated" id="freepik_stories-online-tech-talks" xmlns="http://www.w3.org/2000/svg" viewBox="0 0 500 500" version="1.1" xmlns:xlink="http://www.w3.org/1999/xlink" xmlns:svgjs="http://svgjs.com/svgjs"><style>svg#freepik_stories-online-tech-talks:not(.animated) .animable {opacity: 0;}svg#freepik_stories-online-tech-talks.animated #freepik--Gers--inject-111 {animation: 1s 1 forwards cubic-bezier(.36,-0.01,.5,1.38) slideDown,3s Infinite  linear floating;animation-delay: 0s,1s;}svg#freepik_stories-online-tech-talks.animated #freepik--device-1--inject-111 {animation: 1s 1 forwards cubic-bezier(.36,-0.01,.5,1.38) slideDown,3s Infinite  linear floating;animation-delay: 0s,1s;}            @keyframes slideDown {                0% {                    opacity: 0;                    transform: translateY(-30px);                }                100% {                    opacity: 1;                    transform: translateY(0);                }            }                    @keyframes floating {                0% {                    opacity: 1;                    transform: translateY(0px);                }                50% {                    transform: translateY(-10px);                }                100% {                    opacity: 1;                    transform: translateY(0px);                }            }        </style><g id="freepik--background-simple--inject-111" class="animable" style="transform-origin: 250.141px 243.969px;"><path d="M472,238.11c-4.93,41.8-24,90.4-62.14,112.73-57.59,33.74-52.77,85.64-165.19,108.2a230.63,230.63,0,0,1-49.85,4.7,191,191,0,0,1-24.46-2c-71.45-10.44-119.53-60.1-137.17-120C9.94,262.85,56.29,211.24,87,180.14s53.23-128,163.57-151.06a224.31,224.31,0,0,1,51.23-4.86c39.26,1,82.08,13.85,111.71,40.76q3.33,3,6.49,6.28C461.2,113.53,478.7,181.12,472,238.11Z" style="fill: rgb(0, 255, 136); transform-origin: 250.141px 243.969px;" id="elv05elp69g7o" class="animable"></path><g id="eldpnx6eou8s9"><path d="M472,238.11c-4.93,41.8-24,90.4-62.14,112.73-57.59,33.74-52.77,85.64-165.19,108.2a230.63,230.63,0,0,1-49.85,4.7,191,191,0,0,1-24.46-2c-71.45-10.44-119.53-60.1-137.17-120C9.94,262.85,56.29,211.24,87,180.14s53.23-128,163.57-151.06a224.31,224.31,0,0,1,51.23-4.86c39.26,1,82.08,13.85,111.71,40.76q3.33,3,6.49,6.28C461.2,113.53,478.7,181.12,472,238.11Z" style="fill: rgb(255, 255, 255); opacity: 0.7; transform-origin: 250.141px 243.969px;" class="animable"></path></g></g><g id="freepik--Gers--inject-111" class="animable animator-active" style="transform-origin: 257.1px 261.615px;"><path d="M267.55,267.06v-7.71l-7.7-.85a18,18,0,0,0-1.89-4.59l4.87-6.08-5.45-5.45-6.06,4.84a18.66,18.66,0,0,0-4.57-1.92l-.86-7.73h-7.71l-.86,7.7a18.32,18.32,0,0,0-4.59,1.88l-6.08-4.86-5.45,5.45L226,253.8a18.25,18.25,0,0,0-1.91,4.57l-7.74.86v7.71l7.7.86a18.13,18.13,0,0,0,1.89,4.59l-4.87,6.08,5.46,5.45,6.05-4.84a18.41,18.41,0,0,0,4.57,1.91l.87,7.74h7.7l.86-7.7a18.34,18.34,0,0,0,4.59-1.89l6.08,4.86,5.45-5.45-4.84-6.05a18.73,18.73,0,0,0,1.92-4.58ZM242,272.35a9.2,9.2,0,1,1,9.2-9.2A9.2,9.2,0,0,1,242,272.35Z" style="fill: rgb(0, 255, 136); stroke: rgb(38, 50, 56); stroke-linecap: round; stroke-linejoin: round; transform-origin: 241.95px 263.15px;" id="el7e9s4h0ez7t" class="animable"></path><path d="M297.85,251.59l-.86-5.11-5.19.29a12.44,12.44,0,0,0-1.76-2.83l2.55-4.56-4.22-3-3.47,3.88a11.78,11.78,0,0,0-3.24-.76l-1.42-5-5.11.86.29,5.19a12.1,12.1,0,0,0-2.83,1.76L268,239.72l-3,4.21,3.88,3.47a12.24,12.24,0,0,0-.77,3.25l-5,1.42.85,5.11,5.19-.29a12.44,12.44,0,0,0,1.76,2.83l-2.54,4.56,4.21,3,3.47-3.88a11.87,11.87,0,0,0,3.24.76l1.43,5,5.1-.86-.28-5.19a12.1,12.1,0,0,0,2.83-1.76l4.56,2.55,3-4.21-3.88-3.47a12.62,12.62,0,0,0,.76-3.25Zm-16.35,6.33a6.17,6.17,0,1,1,5.07-7.11A6.17,6.17,0,0,1,281.5,257.92Z" style="fill: rgb(38, 50, 56); stroke: rgb(38, 50, 56); stroke-miterlimit: 10; transform-origin: 280.48px 251.83px;" id="elqhyelu2xpos" class="animable"></path></g><g id="freepik--Locator--inject-111" class="animable" style="transform-origin: 377.58px 195.835px;"><path d="M377.58,176.27a14.21,14.21,0,0,0-14.21,14.21c0,7.85,14.21,24.92,14.21,24.92s14.21-17.07,14.21-24.92A14.21,14.21,0,0,0,377.58,176.27Zm0,22.14a7.52,7.52,0,1,1,7.51-7.52A7.51,7.51,0,0,1,377.58,198.41Z" style="fill: rgb(38, 50, 56); transform-origin: 377.58px 195.835px;" id="elexw1fceysfn" class="animable"></path></g><g id="freepik--Chart--inject-111" class="animable" style="transform-origin: 350.49px 78.505px;"><g id="eltdq9bgmolo"><rect x="367.36" y="60.85" width="12.89" height="47.99" style="fill: rgb(0, 255, 136); stroke: rgb(38, 50, 56); stroke-linecap: round; stroke-linejoin: round; transform-origin: 373.805px 84.845px; transform: rotate(180deg);" class="animable"></rect></g><g id="elv934neuroph"><rect x="350.17" y="71.59" width="12.89" height="37.25" style="fill: rgb(38, 50, 56); stroke: rgb(38, 50, 56); stroke-miterlimit: 10; transform-origin: 356.615px 90.215px; transform: rotate(180deg);" class="animable"></rect></g><g id="elpo4wdoh48rr"><rect x="332.98" y="80.19" width="12.89" height="28.65" style="fill: rgb(0, 255, 136); stroke: rgb(38, 50, 56); stroke-linecap: round; stroke-linejoin: round; transform-origin: 339.425px 94.515px; transform: rotate(180deg);" class="animable"></rect></g><g id="eltyaepnypger"><rect x="315.79" y="87.35" width="12.89" height="21.49" style="fill: rgb(38, 50, 56); stroke: rgb(38, 50, 56); stroke-miterlimit: 10; transform-origin: 322.235px 98.095px; transform: rotate(180deg);" class="animable"></rect></g><polygon points="321.82 84.18 320.57 82.53 333.75 72.5 340.28 74.68 351.07 63.06 357.42 64.99 368.93 51.8 373.81 54.95 378.87 51.37 380.07 53.07 373.86 57.46 369.31 54.52 358.11 67.37 351.71 65.42 340.89 77.07 334.13 74.82 321.82 84.18" style="fill: rgb(38, 50, 56); transform-origin: 350.32px 67.775px;" id="el69s1w0w6jai" class="animable"></polygon><polygon points="381.12 57.02 385.19 48.17 375.49 49.06 381.12 57.02" style="fill: rgb(38, 50, 56); transform-origin: 380.34px 52.595px;" id="eluykv1gz7iv8" class="animable"></polygon></g><g id="freepik--Cloud--inject-111" class="animable" style="transform-origin: 185.065px 53.8658px;"><path d="M209,52.39a11.45,11.45,0,0,0-17.61-11.63,15.44,15.44,0,0,0-29.72,5.88c0,.19,0,.37,0,.56a10.06,10.06,0,0,0,1.37,19.63v.1h45.46A7.28,7.28,0,0,0,209,52.39Z" style="fill: rgb(255, 255, 255); stroke: rgb(38, 50, 56); stroke-linecap: round; stroke-linejoin: round; transform-origin: 185.065px 49.0608px;" id="elsufdjoe487" class="animable"></path><polygon points="196.07 62.28 183.48 46.42 170.88 62.28 175.81 62.28 175.81 76.54 191.15 76.54 191.15 62.28 196.07 62.28" style="fill: rgb(38, 50, 56); stroke: rgb(38, 50, 56); stroke-linecap: round; stroke-linejoin: round; transform-origin: 183.475px 61.48px;" id="elt4n57d6en6" class="animable"></polygon><polygon points="196.07 59.21 183.48 43.36 170.88 59.21 175.81 59.21 175.81 73.48 191.15 73.48 191.15 59.21 196.07 59.21" style="fill: rgb(0, 255, 136); stroke: rgb(38, 50, 56); stroke-linecap: round; stroke-linejoin: round; transform-origin: 183.475px 58.42px;" id="eldzyyqu1yhq8" class="animable"></polygon></g><g id="freepik--device-2--inject-111" class="animable" style="transform-origin: 131.74px 144.98px;"><g id="elz0yw9f491zj"><rect x="112.45" y="107.38" width="38.58" height="75.2" rx="2.34" style="fill: rgb(0, 255, 136); stroke: rgb(38, 50, 56); stroke-linecap: round; stroke-linejoin: round; transform-origin: 131.74px 144.98px; transform: rotate(18.41deg);" class="animable"></rect></g><path d="M159.23,123.46l2-5.85a2.34,2.34,0,0,0-1.49-3L127.53,104a2.33,2.33,0,0,0-3,1.48l-1.95,5.84Z" style="fill: rgb(38, 50, 56); stroke: rgb(38, 50, 56); stroke-linecap: round; stroke-linejoin: round; transform-origin: 141.971px 113.662px;" id="elooi0zkt37k" class="animable"></path><path d="M104,167.11l-1.74,5.23a2.33,2.33,0,0,0,1.48,3L135.94,186a2.35,2.35,0,0,0,3-1.49l1.74-5.22Z" style="fill: rgb(38, 50, 56); stroke: rgb(38, 50, 56); stroke-linecap: round; stroke-linejoin: round; transform-origin: 121.402px 176.619px;" id="ellxijqy4245l" class="animable"></path></g><g id="freepik--speech-bubble--inject-111" class="animable" style="transform-origin: 90.12px 228.085px;"><path d="M118.78,198.84H61.43a7,7,0,0,0-7,7v32.3a7,7,0,0,0,7,7h39.86l7.11,12.19,5-12.19h5.41a7,7,0,0,0,7-7V205.8A7,7,0,0,0,118.78,198.84Z" style="fill: rgb(38, 50, 56); stroke: rgb(38, 50, 56); stroke-linecap: round; stroke-linejoin: round; transform-origin: 90.12px 228.085px;" id="ely9sulunpzv" class="animable"></path><path d="M80.15,223.24a3.85,3.85,0,1,0-3.85,3.85A3.85,3.85,0,0,0,80.15,223.24Z" style="fill: rgb(0, 255, 136); transform-origin: 76.3px 223.24px;" id="el2sowa3ale82" class="animable"></path><path d="M95.56,223.24a3.85,3.85,0,1,0-3.85,3.85A3.85,3.85,0,0,0,95.56,223.24Z" style="fill: rgb(0, 255, 136); transform-origin: 91.71px 223.24px;" id="elv3wfu7m3jyr" class="animable"></path><path d="M111,223.24a3.85,3.85,0,1,0-3.85,3.85A3.85,3.85,0,0,0,111,223.24Z" style="fill: rgb(0, 255, 136); transform-origin: 107.15px 223.24px;" id="elmy0coride2" class="animable"></path></g><g id="freepik--device-1--inject-111" class="animable" style="transform-origin: 267.345px 139.15px;"><polygon points="295.38 58.61 193.28 114.43 175.58 185.9 273.6 125.32 295.38 58.61" style="fill: rgb(38, 50, 56); stroke: rgb(38, 50, 56); stroke-linecap: round; stroke-linejoin: round; transform-origin: 235.48px 122.255px;" id="elfm4pp25kmsr" class="animable"></polygon><polygon points="290.11 64.22 197 115.12 180.86 180.29 270.25 125.05 290.11 64.22" style="fill: rgb(255, 255, 255); stroke: rgb(38, 50, 56); stroke-linecap: round; stroke-linejoin: round; transform-origin: 235.485px 122.255px;" id="el4popf5i6u2g" class="animable"></polygon><polygon points="273.6 125.32 331.69 157.06 228.66 228.73 175.58 185.9 273.6 125.32" style="fill: rgb(176, 176, 176); stroke: rgb(38, 50, 56); stroke-linecap: round; stroke-linejoin: round; transform-origin: 253.635px 177.025px;" id="elhaoku0w1ab4" class="animable"></polygon><polygon points="302.78 172.53 288.12 162.76 239.93 195.38 253.75 206.48 302.78 172.53" style="fill: rgb(176, 176, 176); stroke: rgb(38, 50, 56); stroke-linecap: round; stroke-linejoin: round; transform-origin: 271.355px 184.62px;" id="ellidlokzcus8" class="animable"></polygon><polygon points="274.02 145.29 277.17 147.12 282.8 143.51 279.61 141.71 274.02 145.29" style="fill: rgb(38, 50, 56); transform-origin: 278.41px 144.415px;" id="el2g52feoe4js" class="animable"></polygon><polygon points="223 192.27 220.22 190.2 214.46 193.89 217.19 195.99 223 192.27" style="fill: rgb(38, 50, 56); transform-origin: 218.73px 193.095px;" id="elp7ka99fd0op" class="animable"></polygon><polygon points="245.72 152.96 248.74 154.88 254.28 151.33 251.22 149.44 245.72 152.96" style="fill: rgb(38, 50, 56); transform-origin: 250px 152.16px;" id="elg1zxu7g0z4k" class="animable"></polygon><polygon points="269.74 142.8 272.89 144.63 278.47 141.06 275.27 139.26 269.74 142.8" style="fill: rgb(38, 50, 56); transform-origin: 274.105px 141.945px;" id="elpe43ofba5c9" class="animable"></polygon><polygon points="219.23 189.46 216.46 187.39 210.74 191.04 213.48 193.14 219.23 189.46" style="fill: rgb(38, 50, 56); transform-origin: 214.985px 190.265px;" id="elnqbwvwdut2s" class="animable"></polygon><polygon points="252.3 148.75 255.37 150.63 260.9 147.09 257.79 145.23 252.3 148.75" style="fill: rgb(38, 50, 56); transform-origin: 256.6px 147.93px;" id="eligfqjud8r09" class="animable"></polygon><polygon points="253.18 167.71 250.2 165.77 244.52 169.41 247.46 171.38 253.18 167.71" style="fill: rgb(38, 50, 56); transform-origin: 248.85px 168.575px;" id="eleb19paueiy7" class="animable"></polygon><polygon points="266.76 159.01 263.7 157.12 258.03 160.76 261.05 162.67 266.76 159.01" style="fill: rgb(38, 50, 56); transform-origin: 262.395px 159.895px;" id="el2hyo3eqo2x3" class="animable"></polygon><polygon points="259.97 163.36 256.95 161.45 251.27 165.08 254.25 167.02 259.97 163.36" style="fill: rgb(38, 50, 56); transform-origin: 255.62px 164.235px;" id="eljzaoetuwe8" class="animable"></polygon><polygon points="285.58 146.96 282.38 145.16 278.29 147.77 281.44 149.6 285.58 146.96" style="fill: rgb(38, 50, 56); transform-origin: 281.935px 147.38px;" id="elirrl09pojuq" class="animable"></polygon><polygon points="273.55 154.66 270.45 152.8 264.78 156.43 267.85 158.31 273.55 154.66" style="fill: rgb(38, 50, 56); transform-origin: 269.165px 155.555px;" id="el9386z6bbskh" class="animable"></polygon><polygon points="280.35 150.31 277.2 148.48 271.54 152.1 274.64 153.96 280.35 150.31" style="fill: rgb(38, 50, 56); transform-origin: 275.945px 151.22px;" id="elq1jmj820cnl" class="animable"></polygon><polygon points="258.88 144.53 261.99 146.39 267.52 142.85 264.37 141.02 258.88 144.53" style="fill: rgb(38, 50, 56); transform-origin: 263.2px 143.705px;" id="eloh5xox2d4s" class="animable"></polygon><polygon points="205.01 188.11 202.28 186.02 196.67 189.61 199.37 191.73 205.01 188.11" style="fill: rgb(38, 50, 56); transform-origin: 200.84px 188.875px;" id="elfs19zsd2lsl" class="animable"></polygon><polygon points="239.14 157.18 242.12 159.12 247.67 155.57 244.64 153.65 239.14 157.18" style="fill: rgb(38, 50, 56); transform-origin: 243.405px 156.385px;" id="el5yle9pbrwn8" class="animable"></polygon><polygon points="208.73 190.96 205.99 188.86 200.33 192.49 203.03 194.61 208.73 190.96" style="fill: rgb(38, 50, 56); transform-origin: 204.53px 191.735px;" id="el6bamjbce7nu" class="animable"></polygon><polygon points="212.44 193.81 209.71 191.71 203.99 195.37 206.69 197.49 212.44 193.81" style="fill: rgb(38, 50, 56); transform-origin: 208.215px 194.6px;" id="elrwgo03l86t" class="animable"></polygon><polygon points="199.61 182.5 202.34 184.6 207.93 181.02 205.15 178.95 199.61 182.5" style="fill: rgb(38, 50, 56); transform-origin: 203.77px 181.775px;" id="elajsevhx4aw" class="animable"></polygon><polygon points="193.01 186.73 195.71 188.85 201.3 185.27 198.57 183.17 193.01 186.73" style="fill: rgb(38, 50, 56); transform-origin: 197.155px 186.01px;" id="elfji1m7ip97" class="animable"></polygon><polygon points="232.55 161.4 235.49 163.37 241.05 159.81 238.07 157.87 232.55 161.4" style="fill: rgb(38, 50, 56); transform-origin: 236.8px 160.62px;" id="elcjsahhfyw9" class="animable"></polygon><polygon points="225.97 165.62 228.86 167.61 234.43 164.05 231.49 162.08 225.97 165.62" style="fill: rgb(38, 50, 56); transform-origin: 230.2px 164.845px;" id="eljyqx5qttw2g" class="animable"></polygon><polygon points="212.79 174.06 215.6 176.11 221.18 172.53 218.32 170.51 212.79 174.06" style="fill: rgb(38, 50, 56); transform-origin: 216.985px 173.31px;" id="el542e8raoxcx" class="animable"></polygon><polygon points="219.38 169.84 222.23 171.86 227.8 168.29 224.91 166.3 219.38 169.84" style="fill: rgb(38, 50, 56); transform-origin: 223.59px 169.08px;" id="elboxhvqqdmfh" class="animable"></polygon><polygon points="206.2 178.28 208.97 180.35 214.56 176.78 211.74 174.73 206.2 178.28" style="fill: rgb(38, 50, 56); transform-origin: 210.38px 177.54px;" id="eliraj301o7ps" class="animable"></polygon><polygon points="263.1 147.06 266.21 148.91 271.79 145.34 268.64 143.51 263.1 147.06" style="fill: rgb(38, 50, 56); transform-origin: 267.445px 146.21px;" id="el9jw0l8be80u" class="animable"></polygon><polygon points="242.4 169.39 239.46 167.42 233.83 171.03 236.73 173.03 242.4 169.39" style="fill: rgb(38, 50, 56); transform-origin: 238.115px 170.225px;" id="eldkljxf446o6" class="animable"></polygon><polygon points="249.14 165.07 246.16 163.13 240.53 166.74 243.47 168.71 249.14 165.07" style="fill: rgb(38, 50, 56); transform-origin: 244.835px 165.92px;" id="el51qwgrdefgd" class="animable"></polygon><polygon points="255.87 160.76 252.85 158.85 247.23 162.45 250.21 164.39 255.87 160.76" style="fill: rgb(38, 50, 56); transform-origin: 251.55px 161.62px;" id="el30z7kb7h86" class="animable"></polygon><polygon points="246.39 172.06 243.45 170.09 237.76 173.74 240.66 175.73 246.39 172.06" style="fill: rgb(38, 50, 56); transform-origin: 242.075px 172.91px;" id="elo2kz14in1kr" class="animable"></polygon><polygon points="262.6 156.45 259.54 154.56 253.93 158.16 256.95 160.07 262.6 156.45" style="fill: rgb(38, 50, 56); transform-origin: 258.265px 157.315px;" id="eljg8ee4gfa7" class="animable"></polygon><polygon points="260.62 153.87 263.69 155.75 269.34 152.14 266.23 150.28 260.62 153.87" style="fill: rgb(38, 50, 56); transform-origin: 264.98px 153.015px;" id="elfid58n5kt68" class="animable"></polygon><polygon points="220.43 179.61 223.25 181.66 228.93 178.02 226.08 176 220.43 179.61" style="fill: rgb(38, 50, 56); transform-origin: 224.68px 178.83px;" id="ely8y720xmjqj" class="animable"></polygon><polygon points="249.82 155.56 252.84 157.47 258.44 153.89 255.38 152 249.82 155.56" style="fill: rgb(38, 50, 56); transform-origin: 254.13px 154.735px;" id="elum31egf38d" class="animable"></polygon><polygon points="185.9 182.61 181.7 185.2 186.81 189.33 191.02 186.63 185.9 182.61" style="fill: rgb(38, 50, 56); transform-origin: 186.36px 185.97px;" id="elvdkawnsu0c" class="animable"></polygon><polygon points="235.67 173.7 232.77 171.71 227.13 175.32 229.99 177.34 235.67 173.7" style="fill: rgb(38, 50, 56); transform-origin: 231.4px 174.525px;" id="elxj7gl9ynso8" class="animable"></polygon><polygon points="276.07 147.82 272.92 145.99 267.32 149.58 270.43 151.44 276.07 147.82" style="fill: rgb(38, 50, 56); transform-origin: 271.695px 148.715px;" id="elwbqdfdknor" class="animable"></polygon><polygon points="256.46 151.31 259.53 153.19 265.12 149.61 262.01 147.75 256.46 151.31" style="fill: rgb(38, 50, 56); transform-origin: 260.79px 150.47px;" id="el25xgprfnug6" class="animable"></polygon><polygon points="226.02 185.11 223.21 183.06 217.5 186.72 220.27 188.79 226.02 185.11" style="fill: rgb(38, 50, 56); transform-origin: 221.76px 185.925px;" id="elro1mzf7mm2" class="animable"></polygon><polygon points="222.2 182.33 219.38 180.28 213.73 183.91 216.51 185.98 222.2 182.33" style="fill: rgb(38, 50, 56); transform-origin: 217.965px 183.13px;" id="elbfpeq0qmwfr" class="animable"></polygon><polygon points="232.81 180.76 229.95 178.74 224.25 182.39 227.07 184.44 232.81 180.76" style="fill: rgb(38, 50, 56); transform-origin: 228.53px 181.59px;" id="eloh6bvwy1lni" class="animable"></polygon><polygon points="239.6 176.41 236.7 174.42 231.01 178.06 233.86 180.08 239.6 176.41" style="fill: rgb(38, 50, 56); transform-origin: 235.305px 177.25px;" id="elpdh6pq3vwk" class="animable"></polygon><polygon points="215.46 186.65 212.69 184.57 207.03 188.2 209.77 190.29 215.46 186.65" style="fill: rgb(38, 50, 56); transform-origin: 211.245px 187.43px;" id="elgivn8lunhpn" class="animable"></polygon><polygon points="236.54 164.07 239.48 166.04 245.09 162.44 242.11 160.5 236.54 164.07" style="fill: rgb(38, 50, 56); transform-origin: 240.815px 163.27px;" id="el6bd7xmy1ypk" class="animable"></polygon><polygon points="229.9 168.32 232.79 170.32 238.41 166.72 235.48 164.75 229.9 168.32" style="fill: rgb(38, 50, 56); transform-origin: 234.155px 167.535px;" id="el9j9ks65ujl" class="animable"></polygon><polygon points="243.18 159.81 246.16 161.76 251.77 158.16 248.75 156.25 243.18 159.81" style="fill: rgb(38, 50, 56); transform-origin: 247.475px 159.005px;" id="el91g55jwvs3k" class="animable"></polygon><polygon points="223.25 172.58 226.11 174.6 231.74 171 228.84 169 223.25 172.58" style="fill: rgb(38, 50, 56); transform-origin: 227.495px 171.8px;" id="elw520ok6792" class="animable"></polygon><polygon points="216.61 176.84 219.43 178.88 225.06 175.28 222.2 173.25 216.61 176.84" style="fill: rgb(38, 50, 56); transform-origin: 220.835px 176.065px;" id="elagbi29zw9a9" class="animable"></polygon><polygon points="209.97 181.09 212.74 183.16 218.38 179.55 215.56 177.51 209.97 181.09" style="fill: rgb(38, 50, 56); transform-origin: 214.175px 180.335px;" id="eldiinbh111bv" class="animable"></polygon><polygon points="203.32 185.35 206.05 187.45 211.7 183.83 208.92 181.76 203.32 185.35" style="fill: rgb(38, 50, 56); transform-origin: 207.51px 184.605px;" id="el2sdkd9sjvz2" class="animable"></polygon><polygon points="216.15 196.65 213.42 194.56 207.65 198.25 210.34 200.37 216.15 196.65" style="fill: rgb(38, 50, 56); transform-origin: 211.9px 197.465px;" id="elulfpxmx10eh" class="animable"></polygon><polygon points="209.31 201.04 206.62 198.91 202.2 201.75 204.85 203.89 209.31 201.04" style="fill: rgb(38, 50, 56); transform-origin: 205.755px 201.4px;" id="elmfgeqx0ow3f" class="animable"></polygon><polygon points="221.88 201.04 217.13 197.4 211.31 201.13 216.07 204.88 221.88 201.04" style="fill: rgb(38, 50, 56); transform-origin: 216.595px 201.14px;" id="elqc73szith" class="animable"></polygon><polygon points="223.99 193.01 218.17 196.74 222.9 200.36 228.7 196.53 223.99 193.01" style="fill: rgb(38, 50, 56); transform-origin: 223.435px 196.685px;" id="el511eu3yb148" class="animable"></polygon><polygon points="237.71 184.22 231.9 187.94 236.55 191.33 242.34 187.5 237.71 184.22" style="fill: rgb(38, 50, 56); transform-origin: 237.12px 187.775px;" id="elcz81wolcmzb" class="animable"></polygon><polygon points="205.21 177.54 210.73 174 205.72 170.36 200.17 173.78 205.21 177.54" style="fill: rgb(38, 50, 56); transform-origin: 205.45px 173.95px;" id="el18tptde8487h" class="animable"></polygon><polygon points="205.65 198.16 202.96 196.03 198.59 198.83 201.25 200.98 205.65 198.16" style="fill: rgb(38, 50, 56); transform-origin: 202.12px 198.505px;" id="elqkj5rlxi8c" class="animable"></polygon><polygon points="192.05 185.97 197.59 182.42 192.51 178.52 186.95 181.96 192.05 185.97" style="fill: rgb(38, 50, 56); transform-origin: 192.27px 182.245px;" id="el55oodo7sftr" class="animable"></polygon><polygon points="198.63 181.75 204.16 178.21 199.11 174.44 193.56 177.87 198.63 181.75" style="fill: rgb(38, 50, 56); transform-origin: 198.86px 178.095px;" id="elpsf6c4t20th" class="animable"></polygon><polygon points="194.68 189.51 191.98 187.39 187.76 190.09 190.42 192.24 194.68 189.51" style="fill: rgb(38, 50, 56); transform-origin: 191.22px 189.815px;" id="elop73t8plkw" class="animable"></polygon><polygon points="198.33 192.39 195.64 190.27 191.37 193.01 194.03 195.15 198.33 192.39" style="fill: rgb(38, 50, 56); transform-origin: 194.85px 192.71px;" id="el4m8kfsfz056" class="animable"></polygon><polygon points="201.99 195.27 199.3 193.15 194.98 195.92 197.64 198.06 201.99 195.27" style="fill: rgb(38, 50, 56); transform-origin: 198.485px 195.605px;" id="elp606dq0g5f9" class="animable"></polygon><polygon points="230.85 188.62 225.03 192.34 229.73 195.85 235.52 192.01 230.85 188.62" style="fill: rgb(38, 50, 56); transform-origin: 230.275px 192.235px;" id="eldawmzosvk2m" class="animable"></polygon><polygon points="299.72 144.5 293.72 148.34 297.93 150.72 303.88 146.78 299.72 144.5" style="fill: rgb(38, 50, 56); transform-origin: 298.8px 147.61px;" id="el5ft0dfvubgr" class="animable"></polygon><polygon points="292.62 149.05 286.85 152.75 291.11 155.22 296.84 151.44 292.62 149.05" style="fill: rgb(38, 50, 56); transform-origin: 291.845px 152.135px;" id="el81sogdf71p" class="animable"></polygon><polygon points="285.75 153.45 279.97 157.15 284.3 159.74 290.04 155.94 285.75 153.45" style="fill: rgb(38, 50, 56); transform-origin: 285.005px 156.595px;" id="elkbou1kjkomf" class="animable"></polygon><polygon points="210.28 201.79 205.81 204.66 210.58 208.51 215.05 205.56 210.28 201.79" style="fill: rgb(38, 50, 56); transform-origin: 210.43px 205.15px;" id="elij4bdq3h9s" class="animable"></polygon><polygon points="270.9 135.46 276.55 131.84 272.04 129.37 266.35 132.89 270.9 135.46" style="fill: rgb(38, 50, 56); transform-origin: 271.45px 132.415px;" id="el0temeg8sqsd" class="animable"></polygon><polygon points="278.88 157.85 273.1 161.55 277.48 164.25 283.23 160.44 278.88 157.85" style="fill: rgb(38, 50, 56); transform-origin: 278.165px 161.05px;" id="elh910669zso9" class="animable"></polygon><polygon points="276.42 164.95 272.02 162.24 238.76 183.55 243.38 186.81 276.42 164.95" style="fill: rgb(38, 50, 56); transform-origin: 257.59px 174.525px;" id="el4patqtqx51i" class="animable"></polygon><polygon points="284.62 152.79 281.47 150.96 275.76 154.63 278.86 156.48 284.62 152.79" style="fill: rgb(38, 50, 56); transform-origin: 280.19px 153.72px;" id="elpsz43ea4tx" class="animable"></polygon><polygon points="270.92 161.57 267.86 159.68 262.13 163.35 265.15 165.27 270.92 161.57" style="fill: rgb(38, 50, 56); transform-origin: 266.525px 162.475px;" id="el6yb70mp4ido" class="animable"></polygon><polygon points="229.84 187.88 227.03 185.84 221.26 189.53 224.04 191.6 229.84 187.88" style="fill: rgb(38, 50, 56); transform-origin: 225.55px 188.72px;" id="el5lfokiw9f75" class="animable"></polygon><polygon points="277.77 157.18 274.67 155.32 268.94 158.99 272.01 160.88 277.77 157.18" style="fill: rgb(38, 50, 56); transform-origin: 273.355px 158.1px;" id="elnnfhwq2o33g" class="animable"></polygon><polygon points="283.49 144.56 286.68 146.36 294.16 141.46 290.92 139.69 283.49 144.56" style="fill: rgb(38, 50, 56); transform-origin: 288.825px 143.025px;" id="el318x7lw8y8h" class="animable"></polygon><polygon points="298.56 143.87 295.32 142.09 283.04 150.13 286.23 151.93 298.56 143.87" style="fill: rgb(38, 50, 56); transform-origin: 290.8px 147.01px;" id="elcwusveyqd2e" class="animable"></polygon><polygon points="280.71 141 283.91 142.8 289.76 139.05 286.52 137.28 280.71 141" style="fill: rgb(38, 50, 56); transform-origin: 285.235px 140.04px;" id="eligr21o6wlt" class="animable"></polygon><polygon points="236.69 183.5 233.83 181.48 228.07 185.17 230.89 187.21 236.69 183.5" style="fill: rgb(38, 50, 56); transform-origin: 232.38px 184.345px;" id="el4rie3i0ipvs" class="animable"></polygon><polygon points="243.53 179.12 240.63 177.12 234.88 180.81 237.74 182.83 243.53 179.12" style="fill: rgb(38, 50, 56); transform-origin: 239.205px 179.975px;" id="el08p0u5413484" class="animable"></polygon><polygon points="264.07 165.96 261.05 164.04 255.32 167.72 258.3 169.66 264.07 165.96" style="fill: rgb(38, 50, 56); transform-origin: 259.695px 166.85px;" id="ela494iqqwnn4" class="animable"></polygon><polygon points="257.23 170.34 254.25 168.4 248.5 172.08 251.44 174.05 257.23 170.34" style="fill: rgb(38, 50, 56); transform-origin: 252.865px 171.225px;" id="elu5he6zpjwu" class="animable"></polygon><polygon points="250.38 174.73 247.44 172.76 241.69 176.44 244.59 178.44 250.38 174.73" style="fill: rgb(38, 50, 56); transform-origin: 246.035px 175.6px;" id="eljd6rinn11ki" class="animable"></polygon><polygon points="251.21 148.07 256.68 144.57 251.99 141.76 246.48 145.16 251.21 148.07" style="fill: rgb(38, 50, 56); transform-origin: 251.58px 144.915px;" id="elqwod48njog" class="animable"></polygon><polygon points="238.07 156.49 243.56 152.97 238.77 149.93 233.25 153.34 238.07 156.49" style="fill: rgb(38, 50, 56); transform-origin: 238.405px 153.21px;" id="elle0hac12t1n" class="animable"></polygon><polygon points="231.5 160.7 237 157.17 232.16 154.02 226.63 157.44 231.5 160.7" style="fill: rgb(38, 50, 56); transform-origin: 231.815px 157.36px;" id="el7nlduus35uq" class="animable"></polygon><polygon points="244.64 152.28 250.13 148.77 245.38 145.85 239.86 149.25 244.64 152.28" style="fill: rgb(38, 50, 56); transform-origin: 244.995px 149.065px;" id="elblbglphr4mj" class="animable"></polygon><polygon points="218.36 169.12 223.87 165.59 218.94 162.19 213.4 165.61 218.36 169.12" style="fill: rgb(38, 50, 56); transform-origin: 218.635px 165.655px;" id="elemrc6sg16ns" class="animable"></polygon><polygon points="224.93 164.91 230.44 161.38 225.55 158.1 220.01 161.52 224.93 164.91" style="fill: rgb(38, 50, 56); transform-origin: 225.225px 161.505px;" id="elyn93pd08o0s" class="animable"></polygon><polygon points="276.38 138.55 279.57 140.35 285.36 136.65 282.11 134.88 276.38 138.55" style="fill: rgb(38, 50, 56); transform-origin: 280.87px 137.615px;" id="elanvaa1opao" class="animable"></polygon><polygon points="272.04 136.1 275.24 137.91 280.95 134.24 277.71 132.47 272.04 136.1" style="fill: rgb(38, 50, 56); transform-origin: 276.495px 135.19px;" id="el6kgwrpbcheh" class="animable"></polygon><polygon points="265.46 140.32 268.62 142.15 274.13 138.61 270.94 136.81 265.46 140.32" style="fill: rgb(38, 50, 56); transform-origin: 269.795px 139.48px;" id="elr63m1mvan1p" class="animable"></polygon><polygon points="257.77 143.87 263.24 140.37 258.61 137.67 253.1 141.07 257.77 143.87" style="fill: rgb(38, 50, 56); transform-origin: 258.17px 140.77px;" id="el0rwikie2tubl" class="animable"></polygon><polygon points="259.72 136.98 264.34 139.66 269.8 136.17 265.22 133.58 259.72 136.98" style="fill: rgb(38, 50, 56); transform-origin: 264.76px 136.62px;" id="elwr4kzy3wh4" class="animable"></polygon><polygon points="211.78 173.33 217.3 169.79 212.33 166.27 206.79 169.7 211.78 173.33" style="fill: rgb(38, 50, 56); transform-origin: 212.045px 169.8px;" id="ellvkril4gms" class="animable"></polygon><polyline points="197.28 207.57 171.41 224.02 171.41 233.9" style="fill: none; stroke: rgb(38, 50, 56); stroke-linecap: round; stroke-linejoin: round; transform-origin: 184.345px 220.735px;" id="el86sy6icpbsi" class="animable"></polyline><line x1="162.01" y1="237.66" x2="181.76" y2="237.66" style="fill: none; stroke: rgb(38, 50, 56); stroke-linecap: round; stroke-linejoin: round; transform-origin: 171.885px 237.66px;" id="elg239z6oztu" class="animable"></line><line x1="162.01" y1="240.95" x2="181.76" y2="240.95" style="fill: none; stroke: rgb(38, 50, 56); stroke-linecap: round; stroke-linejoin: round; transform-origin: 171.885px 240.95px;" id="eljb01ur6utd" class="animable"></line><line x1="162.01" y1="244.24" x2="181.76" y2="244.24" style="fill: none; stroke: rgb(38, 50, 56); stroke-linecap: round; stroke-linejoin: round; transform-origin: 171.885px 244.24px;" id="elp2ao63qamzq" class="animable"></line><line x1="162.01" y1="247.54" x2="181.76" y2="247.54" style="fill: none; stroke: rgb(38, 50, 56); stroke-linecap: round; stroke-linejoin: round; transform-origin: 171.885px 247.54px;" id="elv0f0voocn3" class="animable"></line><line x1="257" y1="30.76" x2="276.75" y2="30.76" style="fill: none; stroke: rgb(38, 50, 56); stroke-linecap: round; stroke-linejoin: round; transform-origin: 266.875px 30.76px;" id="elt3wf9rp9jx" class="animable"></line><line x1="257" y1="34.05" x2="276.75" y2="34.05" style="fill: none; stroke: rgb(38, 50, 56); stroke-linecap: round; stroke-linejoin: round; transform-origin: 266.875px 34.05px;" id="elxokjg3myo5" class="animable"></line><line x1="257" y1="37.34" x2="276.75" y2="37.34" style="fill: none; stroke: rgb(38, 50, 56); stroke-linecap: round; stroke-linejoin: round; transform-origin: 266.875px 37.34px;" id="el9qd8f55ntn" class="animable"></line><line x1="257" y1="40.63" x2="276.75" y2="40.63" style="fill: none; stroke: rgb(38, 50, 56); stroke-linecap: round; stroke-linejoin: round; transform-origin: 266.875px 40.63px;" id="el8dvcyt4e8y" class="animable"></line><line x1="267.34" y1="84.36" x2="267.34" y2="45.8" style="fill: none; stroke: rgb(38, 50, 56); stroke-linecap: round; stroke-linejoin: round; transform-origin: 267.34px 65.08px;" id="elzqep2vjdrn" class="animable"></line><line x1="352.93" y1="129.51" x2="372.68" y2="129.51" style="fill: none; stroke: rgb(38, 50, 56); stroke-linecap: round; stroke-linejoin: round; transform-origin: 362.805px 129.51px;" id="elmdcc9h7eoof" class="animable"></line><line x1="352.93" y1="132.8" x2="372.68" y2="132.8" style="fill: none; stroke: rgb(38, 50, 56); stroke-linecap: round; stroke-linejoin: round; transform-origin: 362.805px 132.8px;" id="elgq53l3uocyr" class="animable"></line><line x1="352.93" y1="136.09" x2="372.68" y2="136.09" style="fill: none; stroke: rgb(38, 50, 56); stroke-linecap: round; stroke-linejoin: round; transform-origin: 362.805px 136.09px;" id="elebay56uxfab" class="animable"></line><line x1="352.93" y1="139.38" x2="372.68" y2="139.38" style="fill: none; stroke: rgb(38, 50, 56); stroke-linecap: round; stroke-linejoin: round; transform-origin: 362.805px 139.38px;" id="elnkwstgvv8lh" class="animable"></line><polyline points="320.01 150.2 336.47 137.97 347.76 137.97" style="fill: none; stroke: rgb(38, 50, 56); stroke-linecap: round; stroke-linejoin: round; transform-origin: 333.885px 144.085px;" id="el5ous0wmh1gr" class="animable"></polyline></g><g id="freepik--character-2--inject-111" class="animable" style="transform-origin: 380.415px 347.861px;"><g id="elmjisgmkr159"><rect x="294.79" y="281.74" width="175.49" height="167.66" rx="7.56" style="fill: rgb(38, 50, 56); stroke: rgb(38, 50, 56); stroke-linecap: round; stroke-linejoin: round; transform-origin: 382.535px 365.57px; transform: rotate(3.76deg);" class="animable"></rect></g><g id="el7llf2iv25ir"><rect x="290.55" y="274.67" width="175.49" height="167.66" rx="7.56" style="fill: rgb(255, 255, 255); stroke: rgb(38, 50, 56); stroke-linecap: round; stroke-linejoin: round; transform-origin: 378.295px 358.5px; transform: rotate(3.76deg);" class="animable"></rect></g><path d="M470.45,294.4l.41-6.25a7.56,7.56,0,0,0-7.05-8l-160-10.53a7.57,7.57,0,0,0-8,7.05l-.41,6.24Z" style="fill: rgb(255, 255, 255); stroke: rgb(38, 50, 56); stroke-linecap: round; stroke-linejoin: round; transform-origin: 383.137px 282.003px;" id="el5icnoai3syk" class="animable"></path><path d="M441.88,286.52a2.3,2.3,0,1,0-2.44,2.14A2.29,2.29,0,0,0,441.88,286.52Z" style="fill: rgb(255, 255, 255); stroke: rgb(38, 50, 56); stroke-linecap: round; stroke-linejoin: round; transform-origin: 439.585px 286.365px;" id="elok0tcmmjgdf" class="animable"></path><path d="M450.62,287.09a2.3,2.3,0,1,0-2.45,2.15A2.31,2.31,0,0,0,450.62,287.09Z" style="fill: rgb(255, 255, 255); stroke: rgb(38, 50, 56); stroke-linecap: round; stroke-linejoin: round; transform-origin: 448.325px 286.945px;" id="elu7djq1lcs8" class="animable"></path><path d="M459.35,287.67a2.31,2.31,0,1,0-2.45,2.14A2.31,2.31,0,0,0,459.35,287.67Z" style="fill: rgb(255, 255, 255); stroke: rgb(38, 50, 56); stroke-linecap: round; stroke-linejoin: round; transform-origin: 457.046px 287.505px;" id="elzdugipurkz" class="animable"></path><path d="M376,241.84l-1.83.51c-6.05,1.78-25.15,8.17-27.55,18.72-2.86,12.57,9.49,23.23,9.49,23.23s5.19,18,2.67,25.4-13.92,8.94-12.43,21.5,13.8,23.81,47.37,24.57,43.18-.07,46.92-23.31c3-18.74-12.81-32.42-16.27-46s2.31-21.88-10.38-36.05S376,241.84,376,241.84Z" style="fill: rgb(38, 50, 56); stroke: rgb(38, 50, 56); stroke-linecap: round; stroke-linejoin: round; transform-origin: 393.603px 298.344px;" id="elr0wqpqljfeh" class="animable"></path><path d="M373.69,259.8s-16.09,7.16-16.54,9.87-7.18,21.71-5.68,32.22,17,11.8,17,11.8-.47,7.09-8.46,12S336,337.57,336,337.57s14.31,12.32,44.76,11.59,29.16-7,29.16-7a92.35,92.35,0,0,1-15.83-13.37c-6.9-7.57-9.2-18.41-8-23.53s.83-8.44-3.6-20.23S373.69,259.8,373.69,259.8Z" style="fill: rgb(255, 255, 255); stroke: rgb(38, 50, 56); stroke-linecap: round; stroke-linejoin: round; transform-origin: 372.964px 304.496px;" id="elvybkmk8tnlq" class="animable"></path><path d="M366.59,276a11.74,11.74,0,0,1-2.68,7.49c-3,3.91-7.16,4.74-5.6,5.94s6.19,1.77,6.19,1.77" style="fill: none; stroke: rgb(38, 50, 56); stroke-linecap: round; stroke-linejoin: round; transform-origin: 362.28px 283.6px;" id="elmz6lm8krnhi" class="animable"></path><path d="M360.44,294.53s5.5,3.93,12.44-1.64" style="fill: none; stroke: rgb(38, 50, 56); stroke-linecap: round; stroke-linejoin: round; transform-origin: 366.66px 294.383px;" id="el3lks2rkw6m" class="animable"></path><path d="M357.91,275.05s3.14-4.65,7.57-1.32" style="fill: none; stroke: rgb(38, 50, 56); stroke-linecap: round; stroke-linejoin: round; transform-origin: 361.695px 273.789px;" id="elyqottv1pv0g" class="animable"></path><path d="M371.31,274.31s4.91-.89,7.68,3.14" style="fill: none; stroke: rgb(38, 50, 56); stroke-linecap: round; stroke-linejoin: round; transform-origin: 375.15px 275.838px;" id="elr6c3m03ljq" class="animable"></path><path d="M362.11,278.76c-.08,1.23-.68,2.18-1.35,2.14s-1.14-1.07-1.06-2.29.68-2.18,1.35-2.14S362.19,277.54,362.11,278.76Z" style="fill: rgb(38, 50, 56); transform-origin: 360.905px 278.685px;" id="elqn1yup8nmpc" class="animable"></path><g id="el1be3kctfhz9"><ellipse cx="374.51" cy="281" rx="2.22" ry="1.21" style="fill: rgb(38, 50, 56); transform-origin: 374.51px 281px; transform: rotate(-86.24deg);" class="animable"></ellipse></g><path d="M368.5,313.69l9.74-.29s-.31,1.6-4.72,4.14a78.55,78.55,0,0,1-7.74,3.94S368.25,317.23,368.5,313.69Z" style="fill: rgb(38, 50, 56); stroke: rgb(38, 50, 56); stroke-miterlimit: 10; transform-origin: 372.01px 317.44px;" id="elctwxzbn9qbb" class="animable"></path><polygon points="307.97 437.67 328.84 352.56 351.4 360.72 334.63 439.57 307.97 437.67" style="fill: rgb(255, 255, 255); stroke: rgb(38, 50, 56); stroke-linecap: round; stroke-linejoin: round; transform-origin: 329.685px 396.065px;" id="el9twgq5sn4t6" class="animable"></polygon><path d="M328.84,352.56,316.93,400c4,2.49,11.75,6,24.52,6.29H342l9.37-45.54Z" style="fill: rgb(0, 255, 136); stroke: rgb(38, 50, 56); stroke-linecap: round; stroke-linejoin: round; transform-origin: 334.15px 379.425px;" id="elhqdfej0v02i" class="animable"></path><path d="M329.4,439.08l7.72-38.95a70.38,70.38,0,0,1-6.55-14.63c-2.28-7.66,4.37-28.37,4.37-28.37a295.23,295.23,0,0,0,36.5,7.69c20.67,3,40.78-2.33,40.78-2.33l-13.28,45.32,4.3,36.35Z" style="fill: rgb(0, 255, 136); stroke: rgb(38, 50, 56); stroke-linecap: round; stroke-linejoin: round; transform-origin: 370.81px 400.645px;" id="elcwnmh5e5js6" class="animable"></path><polygon points="418.04 445.04 408.77 410.69 432.85 404.2 440.13 446.45 418.04 445.04" style="fill: rgb(255, 255, 255); stroke: rgb(38, 50, 56); stroke-linecap: round; stroke-linejoin: round; transform-origin: 424.45px 425.325px;" id="elf9cbg2fqom4" class="animable"></polygon><path d="M399.1,375.82l9.67,34.87s.93,2.84,10,.38a38.05,38.05,0,0,0,14.08-6.87L419,357.09a14.44,14.44,0,0,0-11-1.83c-6.23,1.54-8,3.64-8,3.64" style="fill: rgb(0, 255, 136); stroke: rgb(38, 50, 56); stroke-linecap: round; stroke-linejoin: round; transform-origin: 415.975px 383.474px;" id="elvdfi3omg3t" class="animable"></path><path d="M333.39,334.21s15,8.23,39,11.47,40.74-5.94,42.15-6.13S427.2,359,427.2,359,398.93,370,374,368.6c-26.46-1.44-53.38-13.53-53.38-13.53Z" style="fill: rgb(0, 255, 136); stroke: rgb(38, 50, 56); stroke-linecap: round; stroke-linejoin: round; transform-origin: 373.91px 351.467px;" id="el80htt6hy3d" class="animable"></path></g><g id="freepik--character-1--inject-111" class="animable" style="transform-origin: 125.325px 362.323px;"><g id="elen8nsm416np"><rect x="35.46" y="288.04" width="175.49" height="167.66" rx="7.56" style="fill: rgb(38, 50, 56); stroke: rgb(38, 50, 56); stroke-linecap: round; stroke-linejoin: round; transform-origin: 123.205px 371.87px; transform: rotate(-8.49deg);" class="animable"></rect></g><g id="elfqkif4yog5r"><rect x="39.7" y="282.38" width="175.49" height="167.66" rx="7.56" style="fill: rgb(255, 255, 255); stroke: rgb(38, 50, 56); stroke-linecap: round; stroke-linejoin: round; transform-origin: 127.445px 366.21px; transform: rotate(-8.49deg);" class="animable"></rect></g><path d="M203.9,284l-.93-6.19a7.56,7.56,0,0,0-8.59-6.36L35.76,295.14a7.56,7.56,0,0,0-6.36,8.59l.93,6.19Z" style="fill: rgb(255, 255, 255); stroke: rgb(38, 50, 56); stroke-linecap: round; stroke-linejoin: round; transform-origin: 116.609px 290.644px;" id="el1o88g41n1p5" class="animable"></path><path d="M174.31,282.38a2.3,2.3,0,1,0-1.94,2.61A2.3,2.3,0,0,0,174.31,282.38Z" style="fill: rgb(255, 255, 255); stroke: rgb(38, 50, 56); stroke-linecap: round; stroke-linejoin: round; transform-origin: 172.034px 282.715px;" id="el7lb8kljsytv" class="animable"></path><path d="M183,281.08A2.31,2.31,0,1,0,181,283.7,2.3,2.3,0,0,0,183,281.08Z" style="fill: rgb(255, 255, 255); stroke: rgb(38, 50, 56); stroke-linecap: round; stroke-linejoin: round; transform-origin: 180.714px 281.408px;" id="eln4xuuq4s47f" class="animable"></path><path d="M191.62,279.79a2.3,2.3,0,1,0-1.93,2.62A2.3,2.3,0,0,0,191.62,279.79Z" style="fill: rgb(255, 255, 255); stroke: rgb(38, 50, 56); stroke-linecap: round; stroke-linejoin: round; transform-origin: 189.346px 280.136px;" id="elbm3bafwiva" class="animable"></path><path d="M163.53,397.65,177,343s-5.37-14.08-5-16.49,2.52-7.46,2.45-9.08-3.87-6.5-1.92-8.06,3.83.15,5.29,2.66.9,4.76.83,6.77,0,3.81,0,3.81,8-11,11-14,6.06-8,7.51-8,1.88.44,1.44,2.32-5.39,7.7-5.39,7.7L190,316.93a53.2,53.2,0,0,1,5.1,7.41c2.23,4,3.41,5.84,1.7,9S187.4,346,187.4,346s1.24,48.46.57,51.28-3.79,14.72-9.84,20.34c-2.06,1.92-8.68,1.48-11.68.84a41.18,41.18,0,0,1-6.89-2.42l-3.38-12.93Z" style="fill: rgb(255, 255, 255); stroke: rgb(38, 50, 56); stroke-linecap: round; stroke-linejoin: round; transform-origin: 177.472px 359.808px;" id="elksyzh10mmy9" class="animable"></path><path d="M190,316.93s-8.82,6.58-7.87,8.08A7.07,7.07,0,0,0,185,327.3s-.9,2.68.44,4.08a4.65,4.65,0,0,0,2.69,1.08s-2.63,1.84.78,2.79,9.05-1.36,10.29-2.81-.31-4.49-.31-4.49a11.66,11.66,0,0,0-.56-3.73,10.87,10.87,0,0,0-1.72-3s-.32-3.4-2-4.61S190,316.93,190,316.93Z" style="fill: rgb(255, 255, 255); stroke: rgb(38, 50, 56); stroke-linecap: round; stroke-linejoin: round; transform-origin: 190.87px 325.808px;" id="elbwcf8ostp6p" class="animable"></path><line x1="184.97" y1="327.3" x2="196.58" y2="321.21" style="fill: rgb(255, 255, 255); stroke: rgb(38, 50, 56); stroke-linecap: round; stroke-linejoin: round; transform-origin: 190.775px 324.255px;" id="elf6ywnktv0cf" class="animable"></line><line x1="188.1" y1="332.46" x2="198.86" y2="327.95" style="fill: rgb(255, 255, 255); stroke: rgb(38, 50, 56); stroke-linecap: round; stroke-linejoin: round; transform-origin: 193.48px 330.205px;" id="elu6abn48eq4h" class="animable"></line><path d="M137,347.71s5,1.79,8.71,8.5,21.07,40.23,21.07,40.23l-12.9,7.19-17.39-52L131.32,346S135.79,346.8,137,347.71Z" style="fill: rgb(0, 255, 136); stroke: rgb(38, 50, 56); stroke-linecap: round; stroke-linejoin: round; transform-origin: 149.05px 374.815px;" id="elj02qs5a778" class="animable"></path><path d="M74.59,353.33s-16.65,18.14-16.77,23,23.8,81.27,23.8,81.27l91.6-13.68S144.29,356.87,139,350s-12.87-8-22.83-8a129.05,129.05,0,0,0-19.37,1.75S81.28,346.64,74.59,353.33Z" style="fill: rgb(0, 255, 136); stroke: rgb(38, 50, 56); stroke-linecap: round; stroke-linejoin: round; transform-origin: 115.52px 399.8px;" id="elwgihsjom8u" class="animable"></path><path d="M81,339s-6,2-7.25,4.78-1.07,13.82-1.07,13.82,12,13.58,17.9,17,10.55,5.82,10.55,5.82,4.1-18.26,4.81-19.22,20.38,4.93,20.38,4.93-1.23-6.36-9.34-16.82S88.25,334.21,81,339Z" style="fill: rgb(0, 255, 136); stroke: rgb(38, 50, 56); stroke-linecap: round; stroke-linejoin: round; transform-origin: 99.4955px 358.766px;" id="elbny8w7ey69s" class="animable"></path><path d="M109.34,286.31s4.37,14.82,7.59,20.61,4,15.27-.14,21.38S104.42,336,104.42,336a87.38,87.38,0,0,0,2.08,8.7c1.09,3.36,2.94,5.24,3.65,12.58s.06,11,.06,11-8.09-5.65-15.35-9.66-13.11-11.75-13.11-11.75-8.74-20.44-12-25.44a73,73,0,0,1-5-8.65c-.28-.55-9.82-5.39-3.43-21.63S89,274.46,96.76,276.82,109.34,286.31,109.34,286.31Z" style="fill: rgb(255, 255, 255); stroke: rgb(38, 50, 56); stroke-linecap: round; stroke-linejoin: round; transform-origin: 89.373px 322.029px;" id="elskfle0dzojs" class="animable"></path><path d="M73,273.71s-3.72-3.95-10-1.63S50.87,287,56.21,299.14,67.93,316,67.93,316s8,2.52,11.07-.67-7-8.95-4.24-11.32,13.2-6.09,9.34-9.62S74,292.17,79.67,287s11.64-4.67,15.3-2.48,10.31,8.65,20.21,1.49,2.13-14.62-2.46-16.48a17.65,17.65,0,0,0-8.42-1.29s-8.76-11.42-18.54-11.33S72.63,270,73,273.71Z" style="fill: rgb(38, 50, 56); stroke: rgb(38, 50, 56); stroke-linecap: round; stroke-linejoin: round; transform-origin: 87.0476px 286.927px;" id="elkf4vkpnr7ue" class="animable"></path><path d="M103.52,293.25s1.7,8.76,4.87,11.61,8.36,4.83,6.48,6.68-6.58,3.14-6.58,3.14" style="fill: none; stroke: rgb(38, 50, 56); stroke-linecap: round; stroke-linejoin: round; transform-origin: 109.395px 303.965px;" id="el0wo98d6tlv2" class="animable"></path><path d="M110,321.08a10.86,10.86,0,0,1-11.82-.4" style="fill: none; stroke: rgb(38, 50, 56); stroke-linecap: round; stroke-linejoin: round; transform-origin: 104.09px 321.658px;" id="elczpktogorlo" class="animable"></path><path d="M100.36,321.93s1.46,5.86,4,5.68,3.15-5.17,3.15-5.17S102.51,323.18,100.36,321.93Z" style="fill: rgb(38, 50, 56); stroke: rgb(38, 50, 56); stroke-linecap: round; stroke-linejoin: round; transform-origin: 103.935px 324.772px;" id="elsbhf4ge0e0j" class="animable"></path><path d="M91.24,300.18s.44-3.6,5-4.67" style="fill: none; stroke: rgb(38, 50, 56); stroke-linecap: round; stroke-linejoin: round; transform-origin: 93.74px 297.845px;" id="elq4z4aa9nbge" class="animable"></path><path d="M105.79,292.71s2.84-2,5.24-.39" style="fill: none; stroke: rgb(38, 50, 56); stroke-linecap: round; stroke-linejoin: round; transform-origin: 108.41px 292.202px;" id="el2n36vcei0nl" class="animable"></path><path d="M98.92,303.34c.5,1.35.3,2.68-.46,3s-1.77-.6-2.26-2-.29-2.68.46-3S98.43,302,98.92,303.34Z" style="fill: rgb(38, 50, 56); transform-origin: 97.5635px 303.841px;" id="elamgp8f1zuya" class="animable"></path><path d="M111.24,298.22c.5,1.36.29,2.68-.46,3s-1.77-.6-2.27-2-.29-2.68.47-3S110.74,296.86,111.24,298.22Z" style="fill: rgb(38, 50, 56); transform-origin: 109.875px 298.721px;" id="elyn3jnm9egj" class="animable"></path><path d="M77.88,319.61s-8.77-8.88-12.23-4.45,3.62,12.39,7.9,13.52,5.57-3.38,5.57-3.38" style="fill: rgb(255, 255, 255); stroke: rgb(38, 50, 56); stroke-linecap: round; stroke-linejoin: round; transform-origin: 71.9237px 321.392px;" id="el2o0loqnvqtl" class="animable"></path><path d="M104.42,336a13.4,13.4,0,0,1-7.34.7c-4.22-.74-6.67-1.35-6.67-1.35a54.76,54.76,0,0,0,8.7,5.75c3.79,1.79,7.39,3.6,7.39,3.6Z" style="fill: rgb(38, 50, 56); stroke: rgb(38, 50, 56); stroke-linecap: round; stroke-linejoin: round; transform-origin: 98.455px 340.025px;" id="elhufkkytmp9" class="animable"></path><g id="eln97k4pltj6"><rect x="150.13" y="386.72" width="42.61" height="57.81" rx="1.99" style="fill: rgb(38, 50, 56); stroke: rgb(38, 50, 56); stroke-linecap: round; stroke-linejoin: round; transform-origin: 171.435px 415.625px; transform: rotate(-3.04deg);" class="animable"></rect></g><path d="M71.08,440.29s6.3,20.94,7.84,21.21,68.46-23.58,68.46-23.58a29.81,29.81,0,0,0,6.06-1.91c2.49-1.2,13.62-10.55,13.62-10.55s4.72-.87,5.66-2.35,1.81-2.44.81-2.45S153,424.05,153.48,424s14.94-6.24,16.85-6.86,3.3-2.49,2.94-3.77-4.22.79-6,1.39S152,419.69,152,419.69s7.46-5.95,9.81-7,6.94-3.88,7.44-5a1.5,1.5,0,0,0-1.64-2.09c-1.12.34-16.79,8.35-18,9.37S140.16,431,140.16,431l-43.72,4.69-1.13-2Z" style="fill: rgb(255, 255, 255); stroke: rgb(38, 50, 56); stroke-linecap: round; stroke-linejoin: round; transform-origin: 122.527px 433.539px;" id="elh8qi2ncr19u" class="animable"></path><line x1="165.92" y1="425.63" x2="152.87" y2="429.92" style="fill: none; stroke: rgb(38, 50, 56); stroke-linecap: round; stroke-linejoin: round; transform-origin: 159.395px 427.775px;" id="eldqazosqysz5" class="animable"></line><path d="M68.82,360.45s-13.6,8-14.46,17.53S68,443.05,68,443.05l28.73-9.7L83.32,387" style="fill: rgb(0, 255, 136); stroke: rgb(38, 50, 56); stroke-linecap: round; stroke-linejoin: round; transform-origin: 75.5266px 401.75px;" id="elehzbahkyuhm" class="animable"></path></g><defs>     <filter id="active" height="200%">         <feMorphology in="SourceAlpha" result="DILATED" operator="dilate" radius="2"></feMorphology>                <feFlood flood-color="#32DFEC" flood-opacity="1" result="PINK"></feFlood>        <feComposite in="PINK" in2="DILATED" operator="in" result="OUTLINE"></feComposite>        <feMerge>            <feMergeNode in="OUTLINE"></feMergeNode>            <feMergeNode in="SourceGraphic"></feMergeNode>        </feMerge>    </filter>    <filter id="hover" height="200%">        <feMorphology in="SourceAlpha" result="DILATED" operator="dilate" radius="2"></feMorphology>                <feFlood flood-color="#ff0000" flood-opacity="0.5" result="PINK"></feFlood>        <feComposite in="PINK" in2="DILATED" operator="in" result="OUTLINE"></feComposite>        <feMerge>            <feMergeNode in="OUTLINE"></feMergeNode>            <feMergeNode in="SourceGraphic"></feMergeNode>        </feMerge>            <feColorMatrix type="matrix" values="0   0   0   0   0                0   1   0   0   0                0   0   0   0   0                0   0   0   1   0 "></feColorMatrix>    </filter></defs></svg>