<svg class="animated" id="freepik_stories-web-search" xmlns="http://www.w3.org/2000/svg" viewBox="0 0 500 500" version="1.1" xmlns:xlink="http://www.w3.org/1999/xlink" xmlns:svgjs="http://svgjs.com/svgjs"><style>svg#freepik_stories-web-search:not(.animated) .animable {opacity: 0;}svg#freepik_stories-web-search.animated #freepik--magnifying-glass--inject-31 {animation: 3s Infinite  linear floating;animation-delay: 0s;}            @keyframes floating {                0% {                    opacity: 1;                    transform: translateY(0px);                }                50% {                    transform: translateY(-10px);                }                100% {                    opacity: 1;                    transform: translateY(0px);                }            }        .animator-hidden { display: none; }</style><g id="freepik--background-complete--inject-31" class="animable animator-active animator-hidden" style="transform-origin: 249.76px 255.055px;"><rect x="67.77" y="401.72" width="35.16" height="11.19" style="fill: rgb(235, 235, 235); transform-origin: 85.35px 407.315px;" id="elogn4zj6abdo" class="animable"></rect><rect x="271.45" y="209.78" width="35.16" height="11.19" style="fill: rgb(235, 235, 235); transform-origin: 289.03px 215.375px;" id="el1le2gdtezkgh" class="animable"></rect><path d="M83.32,427c-5.86.1-20.63.35-26.29.41l-8.87,0h-.45V427l0-11.19v-.51h.5l17.58.06c4.37,0,13.2.14,17.58.2h.24v.24L83.32,427Zm0,0-.24-11.19.24.23c-4.39.07-13.2.16-17.58.2l-17.58.07.5-.5,0,11.19-.46-.46,8.71,0c5.57.07,20.68.32,26.45.42Z" style="fill: rgb(235, 235, 235); transform-origin: 65.66px 421.355px;" id="el5hd0l7q0b95" class="animable"></path><path d="M290,360.8c-5.86.11-20.63.36-26.29.42l-8.87,0h-.45v-.46l-.05-11.18v-.51h.5l17.58.06c4.38,0,13.2.14,17.58.2h.24v.24L290,360.8Zm0,0-.24-11.18.24.23c-4.39.06-13.2.16-17.58.2l-17.58.06.5-.49,0,11.18-.46-.45,8.71,0c5.57.07,20.68.32,26.45.41Z" style="fill: rgb(235, 235, 235); transform-origin: 272.29px 355.145px;" id="elqhcau9ik7ko" class="animable"></path><path d="M270.37,374.91c-5.86.11-20.63.35-26.29.42l-8.87,0h-.45v-.46l0-11.18v-.51h.5l17.58.06c4.37,0,13.2.14,17.58.2h.24v.24l-.23,11.18Zm0,0-.24-11.18.24.23c-4.39.06-13.2.16-17.58.2l-17.58.06.5-.49,0,11.18-.46-.45,8.71,0c5.57.07,20.68.32,26.45.41Z" style="fill: rgb(235, 235, 235); transform-origin: 252.71px 369.255px;" id="elcdl09vcv83l" class="animable"></path><rect x="215.67" y="349.62" width="35.16" height="11.19" style="fill: rgb(235, 235, 235); transform-origin: 233.25px 355.215px;" id="eln8x5egnv9e8" class="animable"></rect><rect x="416.68" y="415.83" width="35.16" height="11.19" style="fill: rgb(235, 235, 235); transform-origin: 434.26px 421.425px;" id="eldrwi9aup03" class="animable"></rect><rect x="397.07" y="44.93" width="35.16" height="11.19" style="fill: rgb(235, 235, 235); transform-origin: 414.65px 50.525px;" id="elkvt1t1cfgjr" class="animable"></rect><path d="M451.84,70.23c-5.86.1-20.63.35-26.29.42l-8.87,0h-.45v-.46L416.18,59v-.5h.5l17.58.07c4.38,0,13.2.13,17.58.2h.24V59l-.24,11.19Zm0,0L451.6,59l.24.24c-4.39.06-13.19.16-17.58.19l-17.58.07.5-.5,0,11.19-.46-.45,8.71,0c5.58.06,20.69.32,26.45.41Z" style="fill: rgb(235, 235, 235); transform-origin: 434.13px 64.575px;" id="elh2x2jx8657u" class="animable"></path><path d="M102.93,56.12c-5.86.1-20.63.35-26.29.42l-8.87,0h-.45v-.46l0-11.19v-.5h.5l17.58.07c4.38,0,13.2.13,17.58.2h.24v.23l-.24,11.19Zm0,0-.24-11.19.24.24c-4.39.06-13.2.16-17.58.19l-17.58.07.5-.5,0,11.19-.46-.45,8.71,0c5.57.06,20.68.32,26.45.41Z" style="fill: rgb(235, 235, 235); transform-origin: 85.27px 50.465px;" id="els3lkpsf0ysp" class="animable"></path><rect x="83.77" y="343.99" width="92.34" height="121.73" style="fill: rgb(235, 235, 235); transform-origin: 129.94px 404.855px;" id="elypttysm7vi" class="animable"></rect><g id="elmrlscpyma7"><rect x="79.3" y="339.25" width="101.28" height="4.74" style="fill: rgb(219, 219, 219); transform-origin: 129.94px 341.62px; transform: rotate(180deg);" class="animable"></rect></g><g id="elpp9fnp26g8"><rect x="47.44" y="339.25" width="31.85" height="4.74" style="fill: rgb(235, 235, 235); transform-origin: 63.365px 341.62px; transform: rotate(180deg);" class="animable"></rect></g><rect x="52.49" y="343.99" width="31.28" height="121.73" style="fill: rgb(219, 219, 219); transform-origin: 68.13px 404.855px;" id="elwqbe6fg7jzf" class="animable"></rect><path d="M166.17,394.59H93.7v-41h72.47ZM94,394.34h72V353.87H94Z" style="fill: rgb(199, 199, 199); transform-origin: 129.935px 374.09px;" id="el7d2ly3eecpj" class="animable"></path><g id="elcs7klvfvwmd"><rect x="125.94" y="365.6" width="14.11" height="8.11" style="fill: rgb(199, 199, 199); transform-origin: 132.995px 369.655px; transform: rotate(180deg);" class="animable"></rect></g><path d="M136,373.22H121.65v-7.14H136ZM121.9,373h13.85v-6.64H121.9Z" style="fill: rgb(199, 199, 199); transform-origin: 128.825px 369.65px;" id="elfhdoxt6nxz" class="animable"></path><path d="M166.17,446H93.7v-41h72.47ZM94,445.78h72V405.31H94Z" style="fill: rgb(199, 199, 199); transform-origin: 129.935px 425.5px;" id="el811px4l31er" class="animable"></path><g id="ela3hkj809r24"><rect x="125.94" y="417.04" width="14.11" height="8.11" style="fill: rgb(199, 199, 199); transform-origin: 132.995px 421.095px; transform: rotate(180deg);" class="animable"></rect></g><path d="M136,424.66H121.65v-7.13H136Zm-14.1-.25h13.85v-6.63H121.9Z" style="fill: rgb(199, 199, 199); transform-origin: 128.825px 421.095px;" id="elsuuo9d1zv7" class="animable"></path></g><g id="freepik--Floor--inject-31" class="animable" style="transform-origin: 250px 465.724px;"><path d="M47.44,465.72c129.77-.61,275.35-.61,405.12,0-129.77.62-275.35.62-405.12,0Z" style="fill: rgb(38, 50, 56); transform-origin: 250px 465.724px;" id="elg6vkei396g5" class="animable"></path></g><g id="freepik--Window--inject-31" class="animable" style="transform-origin: 249.929px 186.82px;"><rect x="65.86" y="66.88" width="368.27" height="239.98" style="fill: rgb(255, 255, 255); transform-origin: 249.995px 186.87px;" id="elcexzho28mig" class="animable"></rect><path d="M434.14,306.86c-.07.06-368.35.11-368.43.15s0-240.08-.09-240.13v-.25h.24s368.32.18,368.37.15-.15,240-.09,240.08Zm0,0c0,.05-.23-240.41,0-239.89l-368.27.16.25-.25c0-.08.11,240.64-.24,239.83l368.27.15Z" style="fill: rgb(38, 50, 56); transform-origin: 249.929px 186.82px;" id="elzig0phkt0c" class="animable"></path><rect x="65.86" y="66.88" width="368.27" height="32.05" style="fill: rgb(0, 255, 136); transform-origin: 249.995px 82.905px;" id="ele3400c8attt" class="animable"></rect><rect x="65.86" y="66.88" width="368.27" height="11.97" style="fill: rgb(38, 50, 56); transform-origin: 249.995px 72.865px;" id="el284o8v9gpma" class="animable"></rect><path d="M74.51,72.55a1.81,1.81,0,1,1-1.81-1.8A1.81,1.81,0,0,1,74.51,72.55Z" style="fill: rgb(0, 255, 136); transform-origin: 72.7px 72.56px;" id="elccfrw7utl5" class="animable"></path><path d="M81.89,72.55a1.81,1.81,0,1,1-1.81-1.8A1.81,1.81,0,0,1,81.89,72.55Z" style="fill: rgb(255, 255, 255); transform-origin: 80.08px 72.56px;" id="elvd3f4vzyka" class="animable"></path><path d="M89.26,72.55a1.81,1.81,0,1,1-1.81-1.8A1.81,1.81,0,0,1,89.26,72.55Z" style="fill: rgb(69, 90, 100); transform-origin: 87.45px 72.56px;" id="el7at43n4c1e3" class="animable"></path><polygon points="150.44 70.75 100.66 70.75 97.66 78.84 153.44 78.84 150.44 70.75" style="fill: rgb(0, 255, 136); transform-origin: 125.55px 74.795px;" id="eldo11x9h7tg4" class="animable"></polygon><g id="elex0nf2xlasb"><polygon points="148.47 76.14 148.02 76.59 146.92 75.5 145.82 76.59 145.38 76.15 146.47 75.05 145.37 73.95 145.82 73.5 146.93 74.6 148.02 73.5 148.47 73.95 147.37 75.04 148.47 76.14" style="opacity: 0.1; transform-origin: 146.92px 75.045px;" class="animable"></polygon></g><polygon points="161.69 74.08 161.69 74.72 160.14 74.72 160.14 76.27 159.51 76.27 159.51 74.72 157.95 74.72 157.95 74.08 159.51 74.08 159.51 72.53 160.14 72.53 160.14 74.08 161.69 74.08" style="fill: rgb(255, 255, 255); transform-origin: 159.82px 74.4px;" id="eldngc96l4yd" class="animable"></polygon><rect x="103.92" y="86.57" width="254.76" height="7.05" style="fill: rgb(255, 255, 255); transform-origin: 231.3px 90.095px;" id="el4up3e453dw8" class="animable"></rect><path d="M358.82,93.69h-255V86.5h255Z" style="fill: rgb(235, 235, 235); transform-origin: 231.32px 90.095px;" id="eloq47w6uamn" class="animable"></path><path d="M108.55,90a.74.74,0,0,0-1.47,0v1.3h0s0,0,0,0,0,0,0,0a.08.08,0,0,1-.07,0,0,0,0,0,1,0,0h0a.1.1,0,0,1-.09,0,.05.05,0,0,1,0,0,0,0,0,0,1,0,0v-3.1a.12.12,0,0,1,.24,0v1.23a1,1,0,0,1,.73-.35.92.92,0,0,1,1,.92v1.3a.11.11,0,0,1-.11.11.11.11,0,0,1-.12-.11Z" style="fill: rgb(199, 199, 199); transform-origin: 107.905px 89.7452px;" id="elbkftw9apv95" class="animable"></path><path d="M110.56,89.22a.12.12,0,0,1-.11.11h-.3V91a.18.18,0,0,0,.17.17.12.12,0,1,1,0,.23.4.4,0,0,1-.41-.4v-1.7h-.29c-.11,0-.11-.06-.11-.11s0-.12.11-.12h.29v-.86a.12.12,0,0,1,.24,0v.86h.3A.12.12,0,0,1,110.56,89.22Z" style="fill: rgb(199, 199, 199); transform-origin: 110.037px 89.748px;" id="elcxuhv96ty34" class="animable"></path><path d="M112.16,89.22a.12.12,0,0,1-.11.11h-.3V91a.18.18,0,0,0,.17.17.12.12,0,1,1,0,.23.4.4,0,0,1-.41-.4v-1.7h-.29c-.11,0-.11-.06-.11-.11s0-.12.11-.12h.29v-.86a.12.12,0,0,1,.24,0v.86h.3A.12.12,0,0,1,112.16,89.22Z" style="fill: rgb(199, 199, 199); transform-origin: 111.637px 89.748px;" id="elxzi411t3fho" class="animable"></path><path d="M113.25,90.3V89.22a.12.12,0,0,1,.11-.12.12.12,0,0,1,.12.12v.33a1.1,1.1,0,0,1,.88-.45,1.16,1.16,0,0,1,0,2.32,1.11,1.11,0,0,1-.88-.46v1.33a.11.11,0,0,1-.12.11.11.11,0,0,1-.11-.11Zm.23,0a.89.89,0,1,0,1.78,0,.89.89,0,1,0-1.78,0Z" style="fill: rgb(199, 199, 199); transform-origin: 114.385px 90.7502px;" id="elcjuuvtdmul" class="animable"></path><path d="M116.59,89a.24.24,0,1,1-.24.24A.24.24,0,0,1,116.59,89Zm0,2a.24.24,0,1,1-.24.24A.24.24,0,0,1,116.59,91Z" style="fill: rgb(199, 199, 199); transform-origin: 116.59px 90.24px;" id="elxoqa4ygynu" class="animable"></path><path d="M117.45,91.27l1.29-3.08a.14.14,0,0,1,.16-.06.11.11,0,0,1,.06.15l-1.3,3.08a.1.1,0,0,1-.1.07h0A.11.11,0,0,1,117.45,91.27Z" style="fill: rgb(199, 199, 199); transform-origin: 118.204px 89.7773px;" id="el8s1eo4ek61n" class="animable"></path><path d="M118.64,91.27l1.3-3.08a.13.13,0,0,1,.15-.06.11.11,0,0,1,.06.15l-1.29,3.08a.11.11,0,0,1-.11.07h0A.12.12,0,0,1,118.64,91.27Z" style="fill: rgb(199, 199, 199); transform-origin: 119.397px 89.7774px;" id="elh0u4j6qeuef" class="animable"></path><path d="M402.52,122.31h-253V107.93h253Z" style="fill: rgb(235, 235, 235); transform-origin: 276.02px 115.12px;" id="el3puyxuddryh" class="animable"></path><path d="M139.83,122.31H97.47V107.93h42.36Z" style="fill: rgb(0, 255, 136); transform-origin: 118.65px 115.12px;" id="el2eezt1pggp" class="animable"></path><path d="M158.37,116.44a.13.13,0,0,1,.19,0,2.2,2.2,0,0,0,1.35.53,1.51,1.51,0,0,0,.91-.27.76.76,0,0,0,.36-.61.67.67,0,0,0-.34-.57,2.66,2.66,0,0,0-1-.34h0a2.58,2.58,0,0,1-1-.34.87.87,0,0,1-.43-.73,1,1,0,0,1,.43-.77,1.69,1.69,0,0,1,1-.3,2.34,2.34,0,0,1,1.28.48.13.13,0,0,1,0,.18.12.12,0,0,1-.17,0,2,2,0,0,0-1.14-.44,1.42,1.42,0,0,0-.84.25.7.7,0,0,0-.33.56.62.62,0,0,0,.31.51,2.43,2.43,0,0,0,.88.31h0a2.77,2.77,0,0,1,1.05.38.92.92,0,0,1,.45.78,1,1,0,0,1-.46.82,1.84,1.84,0,0,1-1.07.33,2.61,2.61,0,0,1-1.52-.6A.14.14,0,0,1,158.37,116.44Z" style="fill: rgb(166, 166, 166); transform-origin: 159.804px 115.12px;" id="el7zy5jjsvnq" class="animable"></path><path d="M162.23,115.77a1.4,1.4,0,0,1,2.8-.1h0v0a.14.14,0,0,1-.15.13h-2.37a1.14,1.14,0,0,0,1.12,1.11,1.09,1.09,0,0,0,.94-.53.12.12,0,0,1,.18,0,.15.15,0,0,1,.05.2,1.39,1.39,0,0,1-1.17.65A1.42,1.42,0,0,1,162.23,115.77Zm.3-.23h2.19a1.11,1.11,0,0,0-2.19,0Z" style="fill: rgb(166, 166, 166); transform-origin: 163.63px 115.775px;" id="el9la3e3x7fqp" class="animable"></path><path d="M168.46,114.46v2.61a.15.15,0,0,1-.15.14.14.14,0,0,1-.14-.14v-.43a1.34,1.34,0,0,1-1.08.57,1.45,1.45,0,0,1,0-2.89,1.31,1.31,0,0,1,1.08.57v-.43a.14.14,0,0,1,.14-.14A.15.15,0,0,1,168.46,114.46Zm-.29,1.31a1.09,1.09,0,1,0-1.08,1.16A1.13,1.13,0,0,0,168.17,115.77Z" style="fill: rgb(166, 166, 166); transform-origin: 167.11px 115.765px;" id="elvbsqglst8ms" class="animable"></path><path d="M169.68,114.47a.15.15,0,0,1,.15-.15.15.15,0,0,1,.14.15v.63l0-.07a1.4,1.4,0,0,1,1.16-.71.15.15,0,0,1,.14.15.15.15,0,0,1-.14.14,1,1,0,0,0-.84.47,2.54,2.54,0,0,0-.35.67.13.13,0,0,0,0,0v1.27a.14.14,0,0,1-.14.14.15.15,0,0,1-.15-.14Z" style="fill: rgb(166, 166, 166); transform-origin: 170.46px 115.74px;" id="elfs3fl1jw21q" class="animable"></path><path d="M171.92,115.76a1.46,1.46,0,0,1,1.49-1.44,1.49,1.49,0,0,1,.92.32.13.13,0,0,1,0,.19.15.15,0,0,1-.2,0,1.13,1.13,0,0,0-.74-.26,1.17,1.17,0,1,0,0,2.33,1.24,1.24,0,0,0,.74-.25.15.15,0,0,1,.2,0,.15.15,0,0,1,0,.21,1.55,1.55,0,0,1-.91.3A1.46,1.46,0,0,1,171.92,115.76Z" style="fill: rgb(166, 166, 166); transform-origin: 173.146px 115.74px;" id="eljn7ql2jlj1h" class="animable"></path><path d="M177.63,115.46a.92.92,0,0,0-1.84,0v1.65a0,0,0,0,1,0,0,.22.22,0,0,1-.09.07h0a.21.21,0,0,1-.11,0s0,0,0,0a.09.09,0,0,1,0-.05v-3.85a.14.14,0,0,1,.14-.14.15.15,0,0,1,.15.14v1.52a1.2,1.2,0,0,1,.92-.42,1.16,1.16,0,0,1,1.21,1.14v1.61a.15.15,0,0,1-.15.14.14.14,0,0,1-.14-.14Z" style="fill: rgb(166, 166, 166); transform-origin: 176.798px 115.205px;" id="elgq3bt0poma" class="animable"></path><rect x="388.13" y="107.92" width="14.39" height="14.39" style="fill: rgb(0, 255, 136); transform-origin: 395.325px 115.115px;" id="elrm0ctev52ig" class="animable"></rect><path d="M398.91,118.28l-1.05.79-1.93-2.55-.7-.93a1.48,1.48,0,0,0,.4-.23,1.7,1.7,0,0,0,.54-.69l.75,1Z" style="fill: rgb(255, 255, 255); transform-origin: 397.07px 116.87px;" id="elgie4e9i8oqj" class="animable"></path><path d="M396.85,112.28a2.84,2.84,0,1,0-.92,4.24,2.42,2.42,0,0,0,.4-.25,3.09,3.09,0,0,0,.59-.61A2.85,2.85,0,0,0,396.85,112.28Zm-1.22,3.08a1.48,1.48,0,0,1-.4.23,1.69,1.69,0,0,1-2-.54,1.71,1.71,0,1,1,2.38.31Z" style="fill: rgb(255, 255, 255); transform-origin: 394.6px 114.011px;" id="elquwecvb13g" class="animable"></path><rect x="427.59" y="93.76" width="6.54" height="213.1" style="fill: rgb(219, 219, 219); transform-origin: 430.86px 200.31px;" id="elmzzdytzwuhj" class="animable"></rect><path d="M430.86,172.46h0a1.69,1.69,0,0,1-1.69-1.69V97.68A1.69,1.69,0,0,1,430.86,96h0a1.68,1.68,0,0,1,1.69,1.69v73.09A1.68,1.68,0,0,1,430.86,172.46Z" style="fill: rgb(166, 166, 166); transform-origin: 430.86px 134.23px;" id="elrguo7fs44m8" class="animable"></path><rect x="97.55" y="144.98" width="49.69" height="38.83" style="fill: rgb(0, 255, 136); transform-origin: 122.395px 164.395px;" id="elvqwgpnv0lhl" class="animable"></rect><g id="elv0qskpj01us"><rect x="97.55" y="144.98" width="49.69" height="38.83" style="opacity: 0.1; transform-origin: 122.395px 164.395px;" class="animable"></rect></g><polygon points="144.13 179.97 116.08 179.97 130.26 162.83 144.13 179.97" style="fill: rgb(0, 255, 136); transform-origin: 130.105px 171.4px;" id="elwbeky91vbmh" class="animable"></polygon><polygon points="122.85 179.97 100.66 179.97 111.88 167.34 122.85 179.97" style="fill: rgb(0, 255, 136); transform-origin: 111.755px 173.655px;" id="elk5w17262tlm" class="animable"></polygon><path d="M117.65,159.29a3,3,0,1,1-3-2.95A2.95,2.95,0,0,1,117.65,159.29Z" style="fill: rgb(0, 255, 136); transform-origin: 114.65px 159.34px;" id="el280u922mwqz" class="animable"></path><rect x="97.55" y="135.89" width="117.99" height="2.99" style="fill: rgb(219, 219, 219); transform-origin: 156.545px 137.385px;" id="eloufr9g6usc" class="animable"></rect><rect x="156.16" y="145.26" width="246.3" height="1.67" style="fill: rgb(235, 235, 235); transform-origin: 279.31px 146.095px;" id="elu6v46lcod4" class="animable"></rect><rect x="156.16" y="152.63" width="246.3" height="1.67" style="fill: rgb(235, 235, 235); transform-origin: 279.31px 153.465px;" id="eloavqsq74i8" class="animable"></rect><rect x="156.16" y="160.01" width="246.3" height="1.67" style="fill: rgb(235, 235, 235); transform-origin: 279.31px 160.845px;" id="elz7godxuat8" class="animable"></rect><rect x="156.16" y="167.38" width="246.3" height="1.67" style="fill: rgb(235, 235, 235); transform-origin: 279.31px 168.215px;" id="elzod0pzbxs4b" class="animable"></rect><rect x="156.16" y="174.76" width="246.3" height="1.67" style="fill: rgb(235, 235, 235); transform-origin: 279.31px 175.595px;" id="elhcmrqnjr7gh" class="animable"></rect><rect x="156.16" y="182.13" width="213.06" height="1.67" style="fill: rgb(235, 235, 235); transform-origin: 262.69px 182.965px;" id="eljficwj7qftb" class="animable"></rect><rect x="399.65" y="182.13" width="2.8" height="1.67" style="fill: rgb(235, 235, 235); transform-origin: 401.05px 182.965px;" id="elp4b6iccgm0h" class="animable"></rect><rect x="391.45" y="182.13" width="2.8" height="1.67" style="fill: rgb(235, 235, 235); transform-origin: 392.85px 182.965px;" id="elpq46n3k5oh" class="animable"></rect><rect x="383.25" y="182.13" width="2.8" height="1.67" style="fill: rgb(235, 235, 235); transform-origin: 384.65px 182.965px;" id="eldnaet6eq5ud" class="animable"></rect><rect x="375.05" y="182.13" width="2.8" height="1.67" style="fill: rgb(235, 235, 235); transform-origin: 376.45px 182.965px;" id="elfvxuya6go6r" class="animable"></rect><rect x="97.47" y="200.63" width="49.69" height="38.83" style="fill: rgb(0, 255, 136); transform-origin: 122.315px 220.045px;" id="eluoazcpv1nmo" class="animable"></rect><g id="elwiidq9lj5o"><rect x="97.47" y="200.63" width="49.69" height="38.83" style="opacity: 0.1; transform-origin: 122.315px 220.045px;" class="animable"></rect></g><polygon points="144.05 235.62 116.01 235.62 130.19 218.49 144.05 235.62" style="fill: rgb(0, 255, 136); transform-origin: 130.03px 227.055px;" id="elxm6c66xjyu" class="animable"></polygon><polygon points="122.77 235.62 100.59 235.62 111.81 223 122.77 235.62" style="fill: rgb(0, 255, 136); transform-origin: 111.68px 229.31px;" id="el9qmve6tgr9w" class="animable"></polygon><circle cx="114.63" cy="214.94" r="2.95" style="fill: rgb(0, 255, 136); transform-origin: 114.63px 214.94px;" id="elzjmjj7gqk5m" class="animable"></circle><rect x="97.47" y="191.54" width="117.99" height="2.99" style="fill: rgb(219, 219, 219); transform-origin: 156.465px 193.035px;" id="ell9roze9y5sr" class="animable"></rect><rect x="156.08" y="200.91" width="246.3" height="1.67" style="fill: rgb(235, 235, 235); transform-origin: 279.23px 201.745px;" id="elf7zbelgwb0n" class="animable"></rect><rect x="156.08" y="208.29" width="246.3" height="1.67" style="fill: rgb(235, 235, 235); transform-origin: 279.23px 209.125px;" id="el6o6znwz50cc" class="animable"></rect><rect x="156.08" y="215.66" width="246.3" height="1.67" style="fill: rgb(235, 235, 235); transform-origin: 279.23px 216.495px;" id="elfhnwzm4c6hj" class="animable"></rect><rect x="156.08" y="223.04" width="246.3" height="1.67" style="fill: rgb(235, 235, 235); transform-origin: 279.23px 223.875px;" id="el7usfgctygn2" class="animable"></rect><rect x="156.08" y="230.41" width="246.3" height="1.67" style="fill: rgb(235, 235, 235); transform-origin: 279.23px 231.245px;" id="el6vk5jpdqdt2" class="animable"></rect><rect x="156.08" y="237.79" width="213.06" height="1.67" style="fill: rgb(235, 235, 235); transform-origin: 262.61px 238.625px;" id="elsi5r4l9k32" class="animable"></rect><rect x="399.58" y="237.79" width="2.8" height="1.67" style="fill: rgb(235, 235, 235); transform-origin: 400.98px 238.625px;" id="elb2xko77gxuv" class="animable"></rect><rect x="391.38" y="237.79" width="2.8" height="1.67" style="fill: rgb(235, 235, 235); transform-origin: 392.78px 238.625px;" id="elbu2wz6sdb0a" class="animable"></rect><rect x="383.18" y="237.79" width="2.8" height="1.67" style="fill: rgb(235, 235, 235); transform-origin: 384.58px 238.625px;" id="elbuq4tha6qfr" class="animable"></rect><rect x="374.97" y="237.79" width="2.8" height="1.67" style="fill: rgb(235, 235, 235); transform-origin: 376.37px 238.625px;" id="ell1ctd68n0jc" class="animable"></rect><rect x="97.47" y="256.29" width="49.69" height="38.83" style="fill: rgb(0, 255, 136); transform-origin: 122.315px 275.705px;" id="elrrcrdzgq8no" class="animable"></rect><g id="elyoy8yh0nf8l"><rect x="97.47" y="256.29" width="49.69" height="38.83" style="opacity: 0.1; transform-origin: 122.315px 275.705px;" class="animable"></rect></g><polygon points="144.05 291.27 116.01 291.27 130.19 274.14 144.05 291.27" style="fill: rgb(0, 255, 136); transform-origin: 130.03px 282.705px;" id="elgcl9tdh16ad" class="animable"></polygon><polygon points="122.77 291.27 100.59 291.27 111.81 278.65 122.77 291.27" style="fill: rgb(0, 255, 136); transform-origin: 111.68px 284.96px;" id="eliv0d4rap35h" class="animable"></polygon><circle cx="114.63" cy="270.6" r="2.95" style="fill: rgb(0, 255, 136); transform-origin: 114.63px 270.6px;" id="elcrfeag64atv" class="animable"></circle><rect x="97.47" y="247.19" width="117.99" height="2.99" style="fill: rgb(219, 219, 219); transform-origin: 156.465px 248.685px;" id="el1nxvl30b9w5" class="animable"></rect><rect x="156.08" y="256.57" width="246.3" height="1.67" style="fill: rgb(235, 235, 235); transform-origin: 279.23px 257.405px;" id="elyukjz03jhra" class="animable"></rect><rect x="156.08" y="263.94" width="246.3" height="1.67" style="fill: rgb(235, 235, 235); transform-origin: 279.23px 264.775px;" id="elpu5vi6mwp9b" class="animable"></rect><rect x="156.08" y="271.32" width="246.3" height="1.67" style="fill: rgb(235, 235, 235); transform-origin: 279.23px 272.155px;" id="ela3v1vh0sof" class="animable"></rect><rect x="156.08" y="278.69" width="246.3" height="1.67" style="fill: rgb(235, 235, 235); transform-origin: 279.23px 279.525px;" id="el6p7ecnwnf4r" class="animable"></rect><rect x="156.08" y="286.07" width="246.3" height="1.67" style="fill: rgb(235, 235, 235); transform-origin: 279.23px 286.905px;" id="el4dwqihuq4e6" class="animable"></rect><rect x="156.08" y="293.44" width="213.06" height="1.67" style="fill: rgb(235, 235, 235); transform-origin: 262.61px 294.275px;" id="elcr8458wczrl" class="animable"></rect><rect x="399.58" y="293.44" width="2.8" height="1.67" style="fill: rgb(235, 235, 235); transform-origin: 400.98px 294.275px;" id="elkheg8vapwoe" class="animable"></rect><rect x="391.38" y="293.44" width="2.8" height="1.67" style="fill: rgb(235, 235, 235); transform-origin: 392.78px 294.275px;" id="elh39p3gpbaz" class="animable"></rect><rect x="383.18" y="293.44" width="2.8" height="1.67" style="fill: rgb(235, 235, 235); transform-origin: 384.58px 294.275px;" id="elig6gxmhvons" class="animable"></rect><rect x="374.97" y="293.44" width="2.8" height="1.67" style="fill: rgb(235, 235, 235); transform-origin: 376.37px 294.275px;" id="elbbrysiecaz" class="animable"></rect></g><g id="freepik--Plant--inject-31" class="animable animator-hidden" style="transform-origin: 406.02px 356.74px;"><path d="M403.16,297.64s-23.6-3.3-18.08-31.78C385.08,265.86,411.44,271.78,403.16,297.64Z" style="fill: rgb(0, 255, 136); transform-origin: 394.506px 281.75px;" id="elnx7vd258el7" class="animable"></path><g id="eltsyq7qzbmd"><path d="M403.16,297.64s-23.6-3.3-18.08-31.78C385.08,265.86,411.44,271.78,403.16,297.64Z" style="opacity: 0.1; transform-origin: 394.506px 281.75px;" class="animable"></path></g><path d="M402,291.7c-.47-1.44-1-2.86-1.61-4.25,0-.18-.05-.36-.06-.54,0-.39-.07-.78-.1-1.17-.07-.85-.12-1.7-.17-2.55-.1-1.7-.21-3.41-.23-5.11,0-.09-.15-.09-.15,0,0,1.71,0,3.41,0,5.12,0,.85.08,1.7.13,2.55,0,.19,0,.38.05.56a51,51,0,0,0-4.73-8.08c-.82-1.14-1.67-2.23-2.58-3.28s-1.94-2.1-2.89-3.16c-.06-.07-.16,0-.1.1a42,42,0,0,1,4.55,6.05c.71,1.08,1.39,2.2,2,3.33l-.22-.09-.84-.34-1.93-.73-3.8-1.41c-.07,0-.12.1-.05.13,1.26.5,2.5,1,3.74,1.57l1.82.78c.31.14.62.26.93.38a2.29,2.29,0,0,0,.62.22c.48.86.95,1.72,1.38,2.59a61.65,61.65,0,0,1,2.89,6.8c.05.16.11.32.17.49a13.22,13.22,0,0,0-1.94-.93l-2.44-1.12c-1.65-.76-3.3-1.53-4.88-2.43-.08,0-.15.09-.07.13,1.62.89,3.21,1.83,4.83,2.71.81.44,1.63.87,2.46,1.27a7.77,7.77,0,0,0,2.22.89,28.39,28.39,0,0,1,1.54,6.69c.27,3.22.24,6.47.31,9.7,0,.05.08.05.09,0,.23-2.93.36-5.89.38-8.83A25.92,25.92,0,0,0,402,291.7Z" style="fill: rgb(38, 50, 56); transform-origin: 396.278px 290.185px;" id="el6j985dedy84" class="animable"></path><path d="M398.33,275a28.1,28.1,0,0,0-.23,5,0,0,0,1,0,.07,0c.09-1.67.11-3.33.3-5C398.48,274.89,398.34,274.86,398.33,275Z" style="fill: rgb(38, 50, 56); transform-origin: 398.272px 277.453px;" id="el7i9r0pbm8r6" class="animable"></path><path d="M391.59,276.38a17.89,17.89,0,0,1-3-1.5c-.07-.05-.15.08-.07.13a11.85,11.85,0,0,0,3.07,1.46C391.61,276.49,391.64,276.4,391.59,276.38Z" style="fill: rgb(38, 50, 56); transform-origin: 390.052px 275.671px;" id="ela5ouekdaydr" class="animable"></path><path d="M403.91,342.86c0-2.61-.07-5.21-.1-7.82-.05-8.66-.12-17.32-.27-26q-.19-10.31-.48-20.61a.15.15,0,0,0-.06-.09l0-5.63c0-.05-.06-.07-.12-.07s-.11,0-.11.07l0,5.64s-.06.05-.06.08c-.34,12.24-.65,24.47-.73,36.71,0,2.48,0,5,0,7.46q-.12,12-.09,23.93c0,1.27,0,2.54,0,3.81,0,7.3.07,14.6.08,21.9,0,.39.43.58.9.6s1.09-.19,1.09-.64c0-8.05.06-16.09.06-24.14C403.93,353,404,347.93,403.91,342.86Z" style="fill: rgb(38, 50, 56); transform-origin: 402.952px 332.741px;" id="elsq0x03kstv" class="animable"></path><path d="M394.06,334.94s-11.35-8.41-22.12-2.73-12.46,27.58-12.46,27.58,15.82,2.26,25.78-7.22C394.85,343.44,394.06,334.94,394.06,334.94Z" style="fill: rgb(0, 255, 136); transform-origin: 376.778px 345.133px;" id="elrjok0xiuffc" class="animable"></path><g id="elup5seu1q8tm"><path d="M394.06,334.94s-11.35-8.41-22.12-2.73-12.46,27.58-12.46,27.58,15.82,2.26,25.78-7.22C394.85,343.44,394.06,334.94,394.06,334.94Z" style="opacity: 0.1; transform-origin: 376.778px 345.133px;" class="animable"></path></g><path d="M397.15,335.46a13.46,13.46,0,0,0-6.57-.86,10.73,10.73,0,0,0-1.39-.14c-.54,0-1.07-.07-1.6-.12l-3.31-.23c-2.24-.17-4.49-.3-6.72-.53-.08,0-.1.13,0,.14,2.21.29,4.41.6,6.63.82,1.14.12,2.28.24,3.42.32l.83.08-1,.25a26.91,26.91,0,0,0-5.14,2.09c-.89.16-1.78.41-2.66.62-1.4.33-2.8.69-4.2,1.05-2.75.73-5.48,1.54-8.21,2.33a.07.07,0,0,0,0,.14c2.73-.67,5.48-1.28,8.22-1.93,1.33-.32,2.66-.63,4-1l1-.24a33.27,33.27,0,0,0-8.07,7,44.3,44.3,0,0,0-5.6,8.84c0,.08.07.16.12.08a42.86,42.86,0,0,1,6.78-8.9c-.05.15-.1.3-.14.45-.22.67-.42,1.34-.64,2-.42,1.34-.84,2.68-1.24,4,0,.09.11.12.14,0,.48-1.29.93-2.59,1.39-3.9.22-.64.45-1.27.67-1.91.12-.33.23-.67.34-1,0-.1.08-.2.11-.3a39.51,39.51,0,0,1,4-3.43,30.23,30.23,0,0,1,6-3.46c0,.2-.07.4-.11.58-.12.52-.23,1-.34,1.56-.22,1.07-.43,2.15-.64,3.22-.43,2.2-.69,4.42-1.1,6.62,0,.09.12.13.14,0,.51-2.21,1.16-4.39,1.65-6.6.25-1.11.5-2.21.73-3.32.11-.52.21-1,.32-1.56.05-.29.12-.58.16-.87.2-.08.4-.18.61-.25,3-1.11,6.27-1.91,9.44-1.3a9.28,9.28,0,0,1,6.83,5.48c.11.24.5.09.44-.16A8.79,8.79,0,0,0,397.15,335.46Z" style="fill: rgb(38, 50, 56); transform-origin: 384.613px 343.892px;" id="elozbnp583dr" class="animable"></path><path d="M379.78,344.81l-1,4.31a32,32,0,0,0-.79,4.2c0,.05.07.05.09,0a32,32,0,0,0,1-4.23l.84-4.26A.07.07,0,0,0,379.78,344.81Z" style="fill: rgb(38, 50, 56); transform-origin: 378.955px 349.054px;" id="elphlc8u0gd0o" class="animable"></path><path d="M368.8,348.46c-1.44.74-2.84,1.57-4.35,2.17a.07.07,0,1,0,.06.13,46.64,46.64,0,0,0,4.33-2.24S368.84,348.45,368.8,348.46Z" style="fill: rgb(38, 50, 56); transform-origin: 366.624px 349.613px;" id="elrli4kzkdom" class="animable"></path><path d="M396.61,319.5s-13.87.88-20.32-8.26-5-22.21-5-22.21,14.56,1.77,20.35,8.34S396.61,319.5,396.61,319.5Z" style="fill: rgb(0, 255, 136); transform-origin: 383.9px 304.276px;" id="elislv09i1hq" class="animable"></path><path d="M403.12,333.18c-.48-1.48-1.08-2.95-1.64-4.4s-1.11-2.79-1.72-4.16a87.09,87.09,0,0,0-4.16-8.17c-1-1.69-2-3.32-3.11-4.93,0-.25-.07-.5-.11-.74-.06-.43-.12-.86-.19-1.29-.14-.88-.29-1.75-.44-2.63-.32-1.92-.71-3.82-1-5.74,0-.09-.15-.08-.14,0,.28,1.89.47,3.79.74,5.69.13.93.25,1.86.39,2.79,0,.33.1.67.16,1a99.84,99.84,0,0,0-6.86-8.9c-.34-.39-.68-.76-1-1.14a2,2,0,0,0-.13-.31l-.3-.8-.6-1.65c-.39-1.09-.74-2.18-1-3.3,0-.09-.16,0-.14,0,.28,1.14.58,2.28.91,3.4.16.54.34,1.08.53,1.61l.1.27c-1.77-1.93-3.62-3.79-5.49-5.63-.07-.07-.16,0-.1.1a99.68,99.68,0,0,1,9.83,12,7.77,7.77,0,0,0-1-.26c-1.07-.21-2.14-.36-3.22-.5-2.26-.29-4.52-.57-6.77-.93-.09,0-.12.13,0,.14,2.15.43,4.28.91,6.41,1.4,1,.23,2,.43,3,.63a20,20,0,0,1,2.44.69l.68,1c1,1.48,2,3,3,4.52l-1.42-.28c-1.07-.21-2.14-.4-3.22-.58-2.12-.34-4.23-.71-6.32-1.19-.09,0-.13.12,0,.14,2.12.5,4.22,1.08,6.33,1.64,1,.27,2,.52,3.06.75l1.55.33a5.07,5.07,0,0,0,.62.11q3,4.92,5.69,10.08c.77,1.5,1.52,3,2.24,4.56s1.37,3.19,2.06,4.78C402.72,333.66,403.23,333.53,403.12,333.18Z" style="fill: rgb(38, 50, 56); transform-origin: 389.858px 313.816px;" id="el85jx6tfs5ss" class="animable"></path><path d="M388.92,301.31c-.26-1.33-.54-2.64-.83-4,0-.09-.16-.05-.14,0,.26,1.3.51,2.6.75,3.91a39.17,39.17,0,0,0,.78,3.88s0,0,0,0A26.63,26.63,0,0,0,388.92,301.31Z" style="fill: rgb(38, 50, 56); transform-origin: 388.714px 301.178px;" id="ely8z8544ahnq" class="animable"></path><path d="M380.83,300.92c-.64-.32-1.32-.58-2-.84l-1-.41-.54-.21a2.77,2.77,0,0,1-.58-.26c-.11-.08-.17.1-.07.12a3.32,3.32,0,0,1,.59.24l.53.24,1,.45a19,19,0,0,0,2,.81C380.86,301.09,380.91,301,380.83,300.92Z" style="fill: rgb(38, 50, 56); transform-origin: 378.729px 300.123px;" id="elv1qdn0pvetr" class="animable"></path><path d="M410.81,308.59s8.39-15.68,21.16-18.1,20.59,10.71,20.59,10.71-9.32,11.89-21,14S410.81,308.59,410.81,308.59Z" style="fill: rgb(0, 255, 136); transform-origin: 431.685px 302.861px;" id="elc9ibuzaezk" class="animable"></path><path d="M440.53,297.51a34.7,34.7,0,0,0-10,.12l.57-.3,2.84-1.46c2-1,3.94-2.11,6-2.93a.07.07,0,1,0-.06-.13c-2,.93-4.07,1.71-6.07,2.63-1,.46-2,.94-3,1.46-.63.33-1.33.65-1.95,1.05a35.19,35.19,0,0,0-8.12,2.69c.54-.58,1.07-1.15,1.6-1.74,1.19-1.3,2.36-2.67,3.67-3.85.07-.07,0-.16-.1-.1-1.34,1.21-2.75,2.33-4.05,3.6-.63.61-1.23,1.24-1.81,1.9-.3.32-.59.66-.87,1a33.68,33.68,0,0,0-17.12,23.11c0,.09.11.14.14.05a38.55,38.55,0,0,1,9.39-15.89,36.87,36.87,0,0,1,17.1-9.89,37.6,37.6,0,0,1,11.81-1.08A.13.13,0,0,0,440.53,297.51Z" style="fill: rgb(38, 50, 56); transform-origin: 421.329px 308.73px;" id="elofblk5y098n" class="animable"></path><g id="elga7dkv7vdem"><path d="M452.56,301.2s-9.32,11.89-21,14c-8.94,1.58-16.29-3.08-19.28-5.37l-.64-1.06s6-5.1,17.48-8S452.56,301.2,452.56,301.2Z" style="opacity: 0.1; transform-origin: 432.1px 307.552px;" class="animable"></path></g><path d="M433.11,291.92a31.45,31.45,0,0,0-2.83,1.87,18.93,18.93,0,0,0-2.47,2.26.07.07,0,0,0,.11.1c.85-.73,1.7-1.47,2.58-2.17a28.09,28.09,0,0,1,2.69-1.93C433.27,292,433.19,291.87,433.11,291.92Z" style="fill: rgb(38, 50, 56); transform-origin: 430.507px 294.041px;" id="elpasrfcgevsa" class="animable"></path><path d="M440.12,294.58c-.47.19-1,.36-1.43.56l-1.42.59c-.1,0-.06.21.05.17l1.42-.58c.48-.19.94-.41,1.42-.61C440.25,294.68,440.2,294.54,440.12,294.58Z" style="fill: rgb(38, 50, 56); transform-origin: 438.71px 295.239px;" id="eljakjxir842g" class="animable"></path><path d="M409.13,328.32s2.24,15.56,13.94,21,25.95,0,25.95,0S443.42,315.67,409.13,328.32Z" style="fill: rgb(0, 255, 136); transform-origin: 429.075px 338.607px;" id="elealmhbetz9h" class="animable"></path><g id="el6bt9jv7h504"><path d="M409.13,328.32s2.24,15.56,13.94,21,25.95,0,25.95,0S443.42,315.67,409.13,328.32Z" style="opacity: 0.1; transform-origin: 429.075px 338.607px;" class="animable"></path></g><path d="M441,339.2c-1.07-.12-2.15-.31-3.21-.5l-1.58-.3-.82-.16-.94-.88a47.25,47.25,0,0,0-7.16-5.18A40.25,40.25,0,0,0,423,330h.22l3.85.17c2.56.12,5.13.18,7.7.34.09,0,.08-.14,0-.14-2.57-.18-5.14-.46-7.71-.68l-3.74-.33-1.92-.17-.5-.05c-.66-.25-1.34-.49-2-.7a18.33,18.33,0,0,0-9.9-.55c-2.94.76-5.88,2.69-6.64,5.79,0,.11.14.18.18.07,1.1-2.59,4-3.9,6.58-4.43a15.41,15.41,0,0,1,5.29-.11,12.07,12.07,0,0,0,.59,2.35c.33,1.1.64,2.19,1,3.29.66,2.18,1.39,4.34,2,6.53a.07.07,0,1,0,.13,0c-.54-2.18-1-4.38-1.52-6.57-.26-1.08-.53-2.15-.8-3.22a17.26,17.26,0,0,0-.59-2.21,25.85,25.85,0,0,1,3,.72,43.21,43.21,0,0,1,5.3,1.94c.17,1.11.42,2.21.67,3.3.32,1.37.68,2.73,1.11,4.07a.07.07,0,1,0,.13,0,2.21,2.21,0,0,0-.05-.25h0c-.26-1.28-.54-2.54-.81-3.81-.22-1-.42-2.06-.64-3.08,1.45.65,2.88,1.37,4.26,2.16,0,.32.11.64.15.93.09.53.19,1.06.28,1.59.22,1.2.46,2.4.75,3.59a55.18,55.18,0,0,0,2,6.76.07.07,0,0,0,0,.09l.07.08c.05.06.13,0,.12-.08-.54-2.3-1.16-4.59-1.67-6.9-.25-1.15-.51-2.31-.74-3.47l-.33-1.74c0-.16-.05-.34-.08-.52a47.39,47.39,0,0,1,4.55,3,48.33,48.33,0,0,1,7,6.36c.09.1.25,0,.18-.14-.9-1.17-1.78-2.32-2.79-3.4-.59-.63-1.2-1.24-1.82-1.83l.19,0,1.65.25c1.08.14,2.17.25,3.25.37C441,339.35,441.06,339.21,441,339.2Z" style="fill: rgb(38, 50, 56); transform-origin: 421.693px 337.475px;" id="el7cclpe4c8aw" class="animable"></path><path d="M432.75,344.47h0c0-.13-.05-.27-.07-.4s-.12-.34-.14-.51h0c-.24-1-.44-2.09-.63-3.14,0-.07-.13-.05-.13,0a12.85,12.85,0,0,0,.89,4.06s.09,0,.09,0Z" style="fill: rgb(38, 50, 56); transform-origin: 432.27px 342.427px;" id="elahj9pwbfg99" class="animable"></path><path d="M423,344.23c0-.05,0-.07-.07-.07-.33-1.38-.65-2.76-.93-4.14-.15-.73-.3-1.46-.44-2.19-.08-.39-.15-.79-.22-1.18a3.4,3.4,0,0,0-.25-1,.07.07,0,0,0-.13,0,6.75,6.75,0,0,0,.29,2.08c.14.76.29,1.52.46,2.28.34,1.53.72,3.06,1.15,4.57,0,.08.17.06.16,0S423,344.34,423,344.23Z" style="fill: rgb(38, 50, 56); transform-origin: 421.99px 340.119px;" id="elvuypo779tz" class="animable"></path><path d="M439.9,334.72c-2.14-.29-4.27-.6-6.41-.86-.09,0-.13.13,0,.14,2.14.32,4.28.58,6.41.86C440,334.87,440,334.73,439.9,334.72Z" style="fill: rgb(38, 50, 56); transform-origin: 436.691px 334.36px;" id="elr35lhscl7g8" class="animable"></path><path d="M403.14,291.85s-7.16-31.4,26.58-44.1C429.72,247.75,439.06,289.07,403.14,291.85Z" style="fill: rgb(0, 255, 136); transform-origin: 416.659px 269.8px;" id="els1y7g9y7uf" class="animable"></path><path d="M410.42,274l.36-.22,1.91-1.06,3.91-2.19c2.58-1.44,5.12-2.94,7.71-4.35.08,0,0-.17-.07-.12-2.6,1.41-5.24,2.73-7.86,4.11l-3.86,2.05-1.58.83a72.07,72.07,0,0,1,3.65-6.24c1.76-2.69,3.69-5.25,5.7-7.76a.12.12,0,0,0-.17-.16,53.54,53.54,0,0,0-7.79,9.57c0-.12,0-.23,0-.33,0-.78.05-1.56.07-2.35,0-1.53-.06-3.06,0-4.59a.07.07,0,1,0-.14,0c-.07,1.51-.25,3-.33,4.52-.05.75-.08,1.5-.1,2.26,0,.4-.05.87,0,1.31-.69,1.11-1.36,2.23-2,3.37a57.27,57.27,0,0,0-3,6.32c0-.78-.09-1.56-.13-2.34-.1-1.72-.31-3.43-.39-5.16,0-.09-.14-.08-.14,0,0,1.72,0,3.44,0,5.16,0,.86.05,1.72.11,2.58l.06.95a56.77,56.77,0,0,0-2.55,8.63,95,95,0,0,0-1.26,9.48,0,0,0,1,0,0,0,51.84,51.84,0,0,1,1.79-8.45c.42-1.48.86-3,1.33-4.42,1.41-.66,2.75-1.49,4.11-2.24s2.82-1.54,4.23-2.31c2.81-1.55,5.62-3.12,8.53-4.48.08,0,0-.16-.08-.12-2.94,1.33-5.9,2.59-8.79,4-1.44.73-2.85,1.5-4.25,2.29-1.18.66-2.38,1.32-3.5,2.08.33-1,.67-1.95,1-2.91C408,279.16,409.13,276.57,410.42,274Z" style="fill: rgb(38, 50, 56); transform-origin: 413.437px 278.57px;" id="elxlo2zmho2a" class="animable"></path><path d="M407.58,266.86a.08.08,0,0,0-.15,0c.13,1.79.19,3.58.38,5.36,0,.1.16.1.15,0C407.9,270.43,407.71,268.65,407.58,266.86Z" style="fill: rgb(38, 50, 56); transform-origin: 407.695px 269.551px;" id="elbalz1rojyjr" class="animable"></path><path d="M423.75,272.86c-2.11.85-4.24,1.66-6.34,2.54-.06,0,0,.12,0,.09,2.13-.8,4.23-1.67,6.35-2.49C423.88,273,423.84,272.82,423.75,272.86Z" style="fill: rgb(38, 50, 56); transform-origin: 420.609px 274.174px;" id="elemnpsskqs1s" class="animable"></path><path d="M427,258.38a54,54,0,0,0-6,3.22.09.09,0,1,0,.09.15c2-1.14,3.95-2.24,6-3.25C427.12,258.46,427,258.34,427,258.38Z" style="fill: rgb(38, 50, 56); transform-origin: 424.016px 260.074px;" id="el2t63il1xmai" class="animable"></path><rect x="377.8" y="359.74" width="48.65" height="51.28" style="fill: rgb(69, 90, 100); transform-origin: 402.125px 385.38px;" id="el5hblwk9j8tb" class="animable"></rect><rect x="374.45" y="377.89" width="2.49" height="87.84" style="fill: rgb(38, 50, 56); transform-origin: 375.695px 421.81px;" id="elocqmvhatx0s" class="animable"></rect><rect x="427.04" y="377.89" width="2.49" height="87.84" style="fill: rgb(38, 50, 56); transform-origin: 428.285px 421.81px;" id="el0veo5sywup3o" class="animable"></rect><rect x="402.07" y="377.89" width="2.49" height="87.84" style="fill: rgb(38, 50, 56); transform-origin: 403.315px 421.81px;" id="elz0f5dwfn69h" class="animable"></rect><rect x="375.69" y="407.74" width="52.59" height="7.1" style="fill: rgb(38, 50, 56); transform-origin: 401.985px 411.29px;" id="elnuclcbt0dz" class="animable"></rect></g><g id="freepik--magnifying-glass--inject-31" class="animable" style="transform-origin: 182.705px 131.578px;"><g id="elpxrzplqo4wb"><rect x="200.99" y="133.24" width="7.98" height="40.51" style="fill: rgb(199, 199, 199); transform-origin: 204.98px 153.495px; transform: rotate(132.99deg);" class="animable"></rect></g><polygon points="235.31 190.02 243.55 181.19 243.55 181.19 219.75 159 219.75 159 211.51 167.83 211.51 167.83 235.31 190.02" style="fill: rgb(38, 50, 56); transform-origin: 227.53px 174.51px;" id="ellrcr5rdciu" class="animable"></polygon><path d="M129.2,111.74a35.09,35.09,0,0,1,12.93-23.69q.74-.6,1.5-1.14a35.26,35.26,0,0,1,53.7,16.39,35.48,35.48,0,0,1-.69,26.19,35.26,35.26,0,0,1-67.44-17.75Z" style="fill: rgb(255, 255, 255); transform-origin: 164.249px 115.529px;" id="elbqubd9zktl7" class="animable"></path><path d="M129.2,111.74c2.56-25,30-39.29,52-27.31,27.66,15.29,23.29,56-7,65.09-24.09,7-47.84-12.81-45-37.78Zm0,0c-2.69,24.86,21,44.55,44.94,37.48,29.82-9,34.15-49.36,7-64.52-21.88-12-49.24,2.18-51.89,27Z" style="fill: rgb(38, 50, 56); transform-origin: 164.304px 115.535px;" id="elwb8qzargpjp" class="animable"></path><path d="M184.88,86.91H143.63a35.34,35.34,0,0,1,41.25,0Z" style="fill: rgb(0, 255, 136); transform-origin: 164.255px 83.5886px;" id="el5yxn3iuq51v" class="animable"></path><path d="M197.33,103.3h-65v26.19h64.27A35.48,35.48,0,0,0,197.33,103.3Z" style="fill: rgb(235, 235, 235); transform-origin: 165.907px 116.395px;" id="elm57ws7b24fa" class="animable"></path><path d="M153.18,116.7a5.17,5.17,0,0,0-1.91-.68h0a4.29,4.29,0,0,1-1.61-.57,1.09,1.09,0,0,1-.56-.92,1.3,1.3,0,0,1,.59-1,2.65,2.65,0,0,1,1.54-.45,3.79,3.79,0,0,1,2.06.79.22.22,0,0,0,.32-.06.23.23,0,0,0-.06-.33,4.12,4.12,0,0,0-2.32-.87,3.11,3.11,0,0,0-1.82.54,1.78,1.78,0,0,0-.79,1.41,1.57,1.57,0,0,0,.78,1.31,4.57,4.57,0,0,0,1.77.64h0a5,5,0,0,1,1.75.61,1.21,1.21,0,0,1,.61,1,1.39,1.39,0,0,1-.65,1.12,2.83,2.83,0,0,1-1.65.5,4.16,4.16,0,0,1-2.48-1,.22.22,0,0,0-.33,0,.27.27,0,0,0,0,.34,4.76,4.76,0,0,0,2.78,1.08,3.32,3.32,0,0,0,1.93-.59,1.89,1.89,0,0,0,.85-1.51A1.69,1.69,0,0,0,153.18,116.7Z" style="fill: rgb(166, 166, 166); transform-origin: 151.17px 116.385px;" id="elrfzcg9kpnu8" class="animable"></path><path d="M158,114.94a2.64,2.64,0,0,0,0,5.27,2.51,2.51,0,0,0,2.13-1.19.29.29,0,0,0-.09-.37.25.25,0,0,0-.34.09,2,2,0,0,1-1.7,1,2.06,2.06,0,0,1-2-2h4.32a.24.24,0,0,0,.26-.23v0A2.59,2.59,0,0,0,158,114.94Zm-2,2.23a2.05,2.05,0,0,1,2-1.71,2,2,0,0,1,2,1.71Z" style="fill: rgb(166, 166, 166); transform-origin: 158.051px 117.575px;" id="eliefi9kx66p" class="animable"></path><path d="M166.52,114.94a.26.26,0,0,0-.25.26V116a2.45,2.45,0,0,0-2-1,2.64,2.64,0,0,0,0,5.27,2.46,2.46,0,0,0,2-1V120a.26.26,0,1,0,.51,0V115.2A.26.26,0,0,0,166.52,114.94Zm-2.23,4.75a2.12,2.12,0,1,1,2-2.11A2,2,0,0,1,164.29,119.69Z" style="fill: rgb(166, 166, 166); transform-origin: 164.289px 117.625px;" id="el0lgvmwgve08" class="animable"></path><path d="M171.72,115a2.56,2.56,0,0,0-2.11,1.29l-.08.13v-1.16a.25.25,0,0,0-.24-.26.26.26,0,0,0-.27.26V120a.26.26,0,0,0,.27.26.25.25,0,0,0,.24-.26v-2.31a.15.15,0,0,1,0-.09,4.69,4.69,0,0,1,.63-1.22,1.92,1.92,0,0,1,1.53-.86.26.26,0,0,0,.26-.26A.26.26,0,0,0,171.72,115Z" style="fill: rgb(166, 166, 166); transform-origin: 170.485px 117.63px;" id="elats4b8cqka" class="animable"></path><path d="M177.16,119.23a2.23,2.23,0,0,1-1.36.46,2.12,2.12,0,1,1,0-4.24,2.18,2.18,0,0,1,1.36.47.26.26,0,0,0,.35,0,.24.24,0,0,0,0-.36,2.73,2.73,0,0,0-1.68-.58,2.64,2.64,0,1,0,0,5.27,2.74,2.74,0,0,0,1.66-.56.26.26,0,0,0,0-.38A.27.27,0,0,0,177.16,119.23Z" style="fill: rgb(166, 166, 166); transform-origin: 175.309px 117.615px;" id="elmiraw24la7d" class="animable"></path><path d="M181.8,114.94a2.16,2.16,0,0,0-1.67.78v-2.78a.26.26,0,0,0-.26-.26.26.26,0,0,0-.26.26v7a.28.28,0,0,0,0,.09.3.3,0,0,0,0,.08.29.29,0,0,0,.21.09h.07a.24.24,0,0,0,.16-.13s0,0,0,0a.2.2,0,0,0,0,0v-3a1.68,1.68,0,0,1,3.35,0V120a.26.26,0,0,0,.26.26A.26.26,0,0,0,184,120V117A2.09,2.09,0,0,0,181.8,114.94Z" style="fill: rgb(166, 166, 166); transform-origin: 181.803px 116.476px;" id="elzv1bylf2mio" class="animable"></path><g id="elqov5i1wibh"><g style="opacity: 0.1; transform-origin: 164.245px 115.58px;" class="animable"><path d="M191.72,93.4A35.31,35.31,0,1,1,168,80.47,35.3,35.3,0,0,1,191.72,93.4Z" style="fill: rgb(255, 255, 255); transform-origin: 164.245px 115.58px;" id="elwr5yjwa0d" class="animable"></path></g></g><path d="M159.84,156.5a41.22,41.22,0,1,1,45.4-36.57A41.26,41.26,0,0,1,159.84,156.5Zm.51-4.69A36.5,36.5,0,1,0,128,111.61,36.54,36.54,0,0,0,160.35,151.81Z" style="fill: rgb(55, 71, 79); transform-origin: 164.257px 115.515px;" id="elo28bskfhic" class="animable"></path><path d="M200,103.35a37.9,37.9,0,0,0-6.35-11.48A37.48,37.48,0,1,0,200,103.35Zm-.65,16a35.32,35.32,0,1,1-7.61-25.89A35.31,35.31,0,0,1,199.32,119.3Zm.65-16a37.9,37.9,0,0,0-6.35-11.48A37.48,37.48,0,1,0,200,103.35Zm-.65,16a35.32,35.32,0,1,1-7.61-25.89A35.31,35.31,0,0,1,199.32,119.3Zm5.12-17.47a42.44,42.44,0,1,0-44.73,55.89,42.45,42.45,0,0,0,44.73-55.89Zm-.42,18a40,40,0,1,1-1.91-17.17A39.73,39.73,0,0,1,204,119.8Zm-10.4-27.93A37.48,37.48,0,1,0,200,103.35,37.9,37.9,0,0,0,193.62,91.87Zm5.7,27.43a35.32,35.32,0,1,1-7.61-25.89A35.31,35.31,0,0,1,199.32,119.3Z" style="fill: rgb(55, 71, 79); transform-origin: 164.298px 115.575px;" id="elae8989i2ev" class="animable"></path><path d="M140.6,132.58a27.17,27.17,0,0,1-4.74-10.16,28.49,28.49,0,0,1-.81-5.69,29.85,29.85,0,0,1,.36-5.81,28,28,0,0,1,4.29-10.82,31,31,0,0,1,8-8.23,55.78,55.78,0,0,0-6.39,9.17,33.94,33.94,0,0,0-2.18,5,28.58,28.58,0,0,0-1.34,5.22A34.9,34.9,0,0,0,137.7,122,45.87,45.87,0,0,0,140.6,132.58Z" style="fill: rgb(255, 255, 255); transform-origin: 141.365px 112.225px;" id="eld9y0kmjn5rs" class="animable"></path><path d="M191,107.18a27.22,27.22,0,0,1,1.79,11.07A29.17,29.17,0,0,1,192,124a30.62,30.62,0,0,1-1.93,5.49,28.18,28.18,0,0,1-7.08,9.23,31.4,31.4,0,0,1-10,5.73,55.56,55.56,0,0,0,8.65-7.08,34.53,34.53,0,0,0,3.47-4.2,28.57,28.57,0,0,0,2.71-4.66,34.55,34.55,0,0,0,3-10.32A45.62,45.62,0,0,0,191,107.18Z" style="fill: rgb(255, 255, 255); transform-origin: 182.905px 125.815px;" id="eltei1zvzggim" class="animable"></path></g><g id="freepik--Character--inject-31" class="animable" style="transform-origin: 250.029px 290.614px;"><path d="M321.08,161.67c0,3.14,1.63,4.21,1.73,5.89,0,0-7.16,3.37-19.29,3.37s-19.28-3.37-19.28-3.37c.1-1.68,1.73-2.75,1.73-5.89,0-3.62-2.42-3.89-1.85-9.38.43-4.09,3.5-4.59,4-12.63.5-8.31,3.66-11.65,6.1-13.54a13.71,13.71,0,0,1,9.31-3.09s4.34-.87,9.08,2.8c2.44,1.88,5.84,5.52,6.34,13.83.49,8,3.56,8.54,4,12.63C323.5,157.78,321.08,158.05,321.08,161.67Z" style="fill: rgb(38, 50, 56); transform-origin: 303.532px 146.935px;" id="elj7aow7gnp3p" class="animable"></path><path d="M288,144.14c1-2.3,1-5,.8-7.53,0-.12-.17-.13-.17,0,0,2.39.08,4.87-.88,7.09-.83,1.93-2.37,3.31-3.55,5a8.68,8.68,0,0,0-1.74,5.24,8.38,8.38,0,0,0,.53,2.86,18.74,18.74,0,0,0,1.46,2.59c1.48,2.66-.31,5.5-1.76,7.59,0,0,0,0,0,0,1.21-1.57,2.5-3.33,2.61-5.48a4.83,4.83,0,0,0-.81-2.87,9.45,9.45,0,0,1-1.39-3,8.08,8.08,0,0,1,1.31-6.44C285.55,147.44,287.08,146.06,288,144.14Z" style="fill: rgb(38, 50, 56); transform-origin: 285.682px 151.748px;" id="elek12u61iwgj" class="animable"></path><path d="M324.13,152a15.65,15.65,0,0,0-2.9-5.93,13.53,13.53,0,0,1-1.57-2.9,18.23,18.23,0,0,1-.85-3.68c-.2-1.37-.38-2.74-.71-4.08a25.9,25.9,0,0,0-1.38-3.88c0-.06-.11,0-.08.05a27.76,27.76,0,0,1,1.81,7.51,15.4,15.4,0,0,0,2,6.45c1.17,1.89,2.61,3.57,3.18,5.83s.78,5.39-.44,7.58c-1,1.8-2.94,3.89-1.9,6.18,0,.07.14,0,.12-.06-.86-2.6,1.39-4.46,2.35-6.54A11.33,11.33,0,0,0,324.13,152Z" style="fill: rgb(38, 50, 56); transform-origin: 320.54px 148.332px;" id="el1cotjtz1cll" class="animable"></path><path d="M301.59,174.41c-5.06,15.67-36.59,71.67-38.57,75.8-2.6,5.44-26.35-12.53-24.17-16.05,1.42-2.3,41.66-56.32,53.85-65.28C303.59,160.87,303.53,168.39,301.59,174.41Z" style="fill: rgb(235, 148, 129); transform-origin: 270.646px 208.314px;" id="elwtlioicm0yb" class="animable"></path><path d="M243.36,228.26c-2.41,2.13-12.59,12.86-14.76,16.48s-7.64,14.49-5,16.43,4.46-1.12,4.46-1.12-1.59,5,1.21,6.67,5.53-3.13,5.53-3.13-1.25,5.21,1.66,6.72,4.85-3.83,4.85-3.83-1.37,4.71,1.55,4.94c3.52.28,5.06-8.68,7.75-12.5.61-.86,13.64-16.69,13.64-16.69Z" style="fill: rgb(235, 148, 129); transform-origin: 243.573px 249.843px;" id="eldx15h2nglvi" class="animable"></path><path d="M241.1,266.94c1.16-6.59,2.8-9.28,7.22-14.16.09-.09,0-.24-.13-.15-4.77,4.38-7.32,7.45-7.41,14.27C240.78,267.23,241.05,267.25,241.1,266.94Z" style="fill: rgb(38, 50, 56); transform-origin: 244.568px 259.881px;" id="elxgkh15unb9" class="animable"></path><path d="M234.69,264.11c1.8-6.74,3.55-9.66,7.81-15.11.06-.08-.06-.19-.13-.12-4.62,5-7.1,8.12-8,15.09C234.32,264.29,234.61,264.42,234.69,264.11Z" style="fill: rgb(38, 50, 56); transform-origin: 238.44px 256.572px;" id="el5yqi7r1ydfw" class="animable"></path><path d="M228.25,259.78c2.21-6.4,4-9.69,8.81-14.45a.12.12,0,0,0-.16-.19c-5.38,4.38-7.64,8.47-8.83,14.55C228,260.11,228.11,260.18,228.25,259.78Z" style="fill: rgb(38, 50, 56); transform-origin: 232.576px 252.578px;" id="elyuys22gy42s" class="animable"></path><path d="M267.5,237.6s-.14,8.38-1,12.05-9.16,16.14-12,14.51c-3.61-2.12-.24-10.26,1.93-14,0,0-8.36-4.88-7.21-11.25S267.5,237.6,267.5,237.6Z" style="fill: rgb(235, 148, 129); transform-origin: 258.306px 250px;" id="elqv0ezgvsuih" class="animable"></path><path d="M253.73,263.25c-1.9-4.3,1.26-9.07,3.1-12.89a.39.39,0,0,0-.29-.56c-3.37-2.28-7.45-6.48-7.51-10.77a.1.1,0,1,0-.19,0c-.57,4.61,3.11,9,6.95,11.32-1.94,3.88-4.9,8.8-2.1,12.93C253.7,263.3,253.74,263.28,253.73,263.25Z" style="fill: rgb(38, 50, 56); transform-origin: 252.826px 251.093px;" id="elfnghgbmnr5" class="animable"></path><path d="M292.28,200.4,268,193.89s13.42-16.95,23-25.74,15.28-5.23,12,6.58S292.28,200.4,292.28,200.4Z" style="fill: rgb(0, 255, 136); transform-origin: 285.966px 181.827px;" id="elqsvb2aw457d" class="animable"></path><path d="M286.8,191c-.19-.79-.64-2.35-1.56-2.57s-1.36,1-1.57,1.62a8.71,8.71,0,0,0,.13,5.85c.26,1.24.82,2.26,1.87,1.84.86-.34,1.07-2,1.2-2.74A10,10,0,0,0,286.8,191Zm8-5.91c-1,.28-1.36,1.3-1.44,2.4a7.8,7.8,0,0,0,.1,2.44c.12.51.42,1.18,1.07,1s1.06-1.27,1.21-1.87C295.91,188.31,296.71,184.55,294.79,185.11Z" style="fill: rgb(38, 50, 56); transform-origin: 289.638px 191.445px;" id="elfbeaqnyubhp" class="animable"></path><path d="M292.9,195.1c-.83-.21-1.64-.54-2.44-.81s-1.64-.51-2.47-.75l-4.77-1.42c-3.22-1-6.41-2-9.7-2.82,0,0-.08.07,0,.09a78.45,78.45,0,0,0,9.47,3.29q2.43.73,4.87,1.38c.83.23,1.67.44,2.51.63s1.72.29,2.54.52C292.94,195.23,293,195.11,292.9,195.1Z" style="fill: rgb(38, 50, 56); transform-origin: 283.22px 192.256px;" id="eliz1j36y9yf" class="animable"></path><g id="elb4vmi5t4yp"><path d="M303,174.73c-3.3,11.82-10.72,25.67-10.72,25.67l-21.48-5.76,27.71-31.19C303.23,162.27,305.29,166.49,303,174.73Z" style="opacity: 0.1; transform-origin: 287.369px 181.827px;" class="animable"></path></g><path d="M274.27,396.71s-5.18,41.09-5.18,41.12c-.47,8.08-.74,15.17-.54,18.85v.06a5.81,5.81,0,0,0,.45,2.53s0,0,.05.05c1.52,1.17,30.26,3.53,50.15,5.68,2.66.29,18.12-.45,18.9-.64,2.32-.55.9-7.2-1.42-9.41-1.05-1-6.33-2.34-11.87-5.55-6.89-4-14.17-8-14.17-8l4.78-41.1Z" style="fill: rgb(235, 148, 129); transform-origin: 303.884px 430.888px;" id="elyjgdfupwvtc" class="animable"></path><path d="M338.1,464.36c-.78.19-16.24.94-18.9.64-19.88-2.15-48.63-4.51-50.16-5.68a.13.13,0,0,0,0-.05,5.51,5.51,0,0,1-.45-2.53.18.18,0,0,1,0-.06c-.2-3.69.07-10.77.54-18.85,0,0,.86-6.84,1.88-14.93l41.39,3.69-1.72,14.76s7.28,4.06,14.17,8c5.53,3.22,10.83,4.56,11.87,5.55C339,457.16,340.43,463.81,338.1,464.36Z" style="fill: rgb(235, 235, 235); transform-origin: 303.907px 443.985px;" id="elhj5kxjwbi4" class="animable"></path><path d="M338.15,464.58c-.78.18-15.89.89-18.44.67-20.25-1.71-49.92-4.31-51.49-5.51-.89-.68.07-22.67,2-33.74l42.15,3.91s-.67,11.32-.17,11.61c1.95,1.13,7.29,4.34,12.61,7.43.95.55,11.09,4.76,12.18,5.8C339.32,457,340.51,464,338.15,464.58Z" style="fill: rgb(0, 255, 136); transform-origin: 303.66px 445.646px;" id="elsqidfdwxw7a" class="animable"></path><path d="M338.59,461.48c-3.44.48-17.82.42-18.44.35-16.82-1.89-41-3.72-48.53-4-.09,0-.09.05,0,.07,7.51,1,31.14,2.93,48.54,4.57a133.39,133.39,0,0,0,18.42-.8C338.8,461.62,338.82,461.45,338.59,461.48Z" style="fill: rgb(38, 50, 56); transform-origin: 305.153px 460.172px;" id="elnd8hocderwo" class="animable"></path><path d="M332.37,452.85a8.85,8.85,0,0,0-6.8,2.08,8.56,8.56,0,0,0-3,5.63c0,.06.12.07.14,0a10.21,10.21,0,0,1,9.64-7.58C332.44,453,332.46,452.86,332.37,452.85Z" style="fill: rgb(38, 50, 56); transform-origin: 327.499px 456.699px;" id="eljcdl3c5pidf" class="animable"></path><path d="M314.75,442.48c-4.39-.46-9.61.62-12.67,4-.11.13.07.3.21.24A60.77,60.77,0,0,1,314.77,443,.28.28,0,0,0,314.75,442.48Z" style="fill: rgb(38, 50, 56); transform-origin: 308.491px 444.556px;" id="elk6suiemqd" class="animable"></path><path d="M318,444.11c-4.38-.46-9.61.62-12.66,4-.12.13.07.3.2.24A60.86,60.86,0,0,1,318,444.66.28.28,0,0,0,318,444.11Z" style="fill: rgb(38, 50, 56); transform-origin: 311.765px 446.186px;" id="el7cxip2sb6ic" class="animable"></path><path d="M321.28,445.74c-4.38-.46-9.61.62-12.66,4-.12.13.06.3.2.24a60.77,60.77,0,0,1,12.48-3.65A.28.28,0,0,0,321.28,445.74Z" style="fill: rgb(38, 50, 56); transform-origin: 315.083px 447.816px;" id="eluax3po1e2u" class="animable"></path><path d="M324.54,447.37c-4.38-.46-9.61.62-12.66,4-.12.13.07.3.2.24a61,61,0,0,1,12.49-3.65A.28.28,0,0,0,324.54,447.37Z" style="fill: rgb(38, 50, 56); transform-origin: 318.346px 449.446px;" id="el5ev8liv2poy" class="animable"></path><path d="M276.79,430.69c-4.92-.43-5.61,7.22-.67,7.66S281.72,431.13,276.79,430.69Z" style="fill: rgb(38, 50, 56); transform-origin: 276.456px 434.52px;" id="elxwn11krb51s" class="animable"></path><path d="M320.55,431.22c-2-2.05-5-.51-6.55,1.28a18.58,18.58,0,0,0-1.92,2.67,23.8,23.8,0,0,0-2.87,7,3.78,3.78,0,0,0-.1.57.17.17,0,0,0,0,.15c0,.16-.07.3-.1.45a.13.13,0,0,0,.14.13.57.57,0,0,0,.4.46.44.44,0,0,0,.35,0c.91-.52,1.87-1,2.83-1.54l.51-.26a24.41,24.41,0,0,0,6.4-4.51C321.17,436,322.5,433.14,320.55,431.22ZM314.33,440l-2.24,1.29c-.71.41-1.43.82-2.11,1.27l-.24.14-.25.16c0-.09.08-.16.11-.24s0,0,0-.05c.78-1.68,1.5-3.39,2.4-5,.16-.32.35-.65.54-1a25.31,25.31,0,0,1,1.86-2.81c1.09-1.36,5.74-4.65,5.73.17C320.15,436.65,316.24,438.9,314.33,440Z" style="fill: rgb(38, 50, 56); transform-origin: 315.267px 437.105px;" id="elm7i03yukir" class="animable"></path><path d="M310,443.19c.06-.06.08-.13,0-.19a2.06,2.06,0,0,0-.25-.26l-.08-.09s0,0,0,0-.27-.29-.41-.42a23.18,23.18,0,0,0-9.35-5.55c-2.26-.67-5.58-.34-6.19,2.49s2.07,4.31,4.27,4.85a21.87,21.87,0,0,0,6.81.36c1.6-.11,3.21-.29,4.77-.39h0A.54.54,0,0,0,310,443.19Zm-6.26-.06c-2.22.1-6.73.34-8.19-1.88-2.61-4.05,3.06-3.84,4.71-3.28a24.29,24.29,0,0,1,3.11,1.34,60.06,60.06,0,0,1,5.76,3.45h0l.21.14a1,1,0,0,0-.24,0c-.22,0-.44,0-.67,0C306.85,443,305.28,443.07,303.7,443.13Z" style="fill: rgb(38, 50, 56); transform-origin: 301.85px 440.441px;" id="elb8znm2zr31d" class="animable"></path><path d="M269,419l45.38,4.59s8.58-61.21,10.57-88.31c2.16-29.42-3.25-118.4-3.25-118.4L286.25,213s-.05,88.61-3.11,118C280.3,358.15,269,419,269,419Z" style="fill: rgb(55, 71, 79); transform-origin: 297.23px 318.295px;" id="elaqcg20rutfu" class="animable"></path><path d="M324.94,335.26c-2,27.09-10.57,88.3-10.57,88.3L269,419s11.31-60.82,14.15-88c.56-5.4,1-12.82,1.4-21.33C286.22,272,286.25,213,286.25,213l35.44,3.85s.06.93.16,2.63C322.72,234.42,326.88,308.83,324.94,335.26Z" style="fill: rgb(55, 71, 79); transform-origin: 297.225px 318.28px;" id="eloya7sbigkus" class="animable"></path><path d="M321.85,219.48l-37.31,90.14C286.22,272,286.25,213,286.25,213l35.44,3.85S321.75,217.78,321.85,219.48Z" style="fill: rgb(38, 50, 56); transform-origin: 303.195px 261.31px;" id="eljnhcfsv51pf" class="animable"></path><path d="M293,218.1l-.49,26.29-.67,26.3c-.51,17.52-1.08,35.05-2,52.57-.23,4.38-.57,8.76-1.12,13.13s-1.24,8.69-1.94,13q-2.13,13-4.59,25.91c-1.63,8.61-6.91,33.93-6.91,33.93s4.62-25.44,6.15-34.07,3.08-17.26,4.45-25.91c.69-4.33,1.34-8.66,1.9-13s.84-8.69,1.07-13.07c1-17.49,1.55-35,2.22-52.54Z" style="fill: rgb(38, 50, 56); transform-origin: 284.14px 313.665px;" id="elxqkic5gkrv" class="animable"></path><path d="M313.83,414.16c-7-.85-5-.71-12-1.48-3.44-.38-26-2.85-29.29-2.64-.07,0-.08.12,0,.14,3.16.85,25.78,2.93,29.22,3.25,7,.63,5,.37,12.07.94A.11.11,0,0,0,313.83,414.16Z" style="fill: rgb(38, 50, 56); transform-origin: 293.195px 412.199px;" id="elfkouduv2kj" class="animable"></path><path d="M198.33,285.17,161,272.53c-7.13-3.84-13.44-7.08-16.86-8.45l-.06,0a5.53,5.53,0,0,0-2.48-.66s-.05,0-.07,0c-2.57,1.34-34.9,57.36-35.37,59.7s6.14,3.85,9.13,2.68,25-17.1,25-17.1L177.74,321Z" style="fill: rgb(235, 148, 129); transform-origin: 152.233px 294.812px;" id="elz4r80vu3vrn" class="animable"></path><path d="M174.21,277l-19.53,36.42-14.4-4.71s-22,15.9-25,17.09-9.62-.35-9.13-2.68,32.8-58.36,35.37-59.7a.08.08,0,0,1,.07,0,5.68,5.68,0,0,1,2.48.66l.06,0c3.43,1.37,9.73,4.61,16.86,8.44Z" style="fill: rgb(235, 235, 235); transform-origin: 140.167px 294.812px;" id="elfl6faa7866d" class="animable"></path><path d="M106,323.32c.49-2.37,32.94-59.46,35.57-60.83.75-.39,18.1,8.73,19.95,9.55,3.27,1.45,9.82,3.77,9.82,3.77l-20.12,37.07S140,309.7,139.49,310c-3.83,2.67-21.56,15-24.27,16C112.18,327.25,105.46,325.69,106,323.32Z" style="fill: rgb(0, 255, 136); transform-origin: 138.655px 294.46px;" id="elbax7rl056yu" class="animable"></path><path d="M108.69,323.83c5.77-9.38,28.15-47.74,33.14-57.45,0-.08,0-.11-.06,0-5.92,9.17-28,47.71-33.23,57.39C108.42,323.94,108.57,324,108.69,323.83Z" style="fill: rgb(38, 50, 56); transform-origin: 125.163px 295.12px;" id="el9r607gojauf" class="animable"></path><path d="M119.38,323.61a8.85,8.85,0,0,0,1-7,8.56,8.56,0,0,0-3.84-5.08c-.06,0-.12.07-.07.11a10.21,10.21,0,0,1,2.8,11.94A.07.07,0,0,0,119.38,323.61Z" style="fill: rgb(38, 50, 56); transform-origin: 118.575px 317.578px;" id="el255hso97hbv" class="animable"></path><path d="M137.52,312c2.27-3.78,3.5-9,1.76-13.15-.07-.16-.3-.06-.3.08a61.44,61.44,0,0,1-2,12.86A.27.27,0,0,0,137.52,312Z" style="fill: rgb(38, 50, 56); transform-origin: 138.531px 305.476px;" id="ellgg8offrhhe" class="animable"></path><path d="M134.67,314.22c2.27-3.77,3.49-9,1.75-13.15-.06-.16-.29-.06-.3.08a60.79,60.79,0,0,1-2,12.86A.28.28,0,0,0,134.67,314.22Z" style="fill: rgb(38, 50, 56); transform-origin: 135.672px 307.699px;" id="eloimdebxpe0c" class="animable"></path><path d="M131.81,316.49c2.27-3.77,3.49-9,1.76-13.15-.07-.16-.3-.06-.31.09a61,61,0,0,1-2,12.86A.28.28,0,0,0,131.81,316.49Z" style="fill: rgb(38, 50, 56); transform-origin: 132.815px 309.97px;" id="el85y6a85yltq" class="animable"></path><path d="M129,318.77c2.26-3.78,3.49-9,1.75-13.15-.07-.17-.3-.07-.3.08a61,61,0,0,1-2,12.86A.28.28,0,0,0,129,318.77Z" style="fill: rgb(38, 50, 56); transform-origin: 130.002px 312.244px;" id="eli4o41iji4g" class="animable"></path><path d="M164.23,282.52c2.48-4.28-4.17-8.13-6.65-3.84S161.76,286.81,164.23,282.52Z" style="fill: rgb(38, 50, 56); transform-origin: 160.905px 280.601px;" id="elvtscarkc04" class="animable"></path><path d="M145.29,322c2.72-1,2.57-4.33,1.6-6.48a19.62,19.62,0,0,0-1.61-2.87,23.42,23.42,0,0,0-5.16-5.56,3.12,3.12,0,0,0-.47-.34.18.18,0,0,0-.12-.09,4.22,4.22,0,0,0-.36-.27.11.11,0,0,0-.18.07.55.55,0,0,0-.59.17.41.41,0,0,0-.12.32c.08,1.05.14,2.13.2,3.21l0,.58a24.15,24.15,0,0,0,1.38,7.71C140.73,320.53,142.72,322.92,145.29,322Zm-5.38-9.37c-.08-.86-.15-1.71-.22-2.57s-.14-1.64-.26-2.45a1.24,1.24,0,0,0,0-.27l0-.3.17.2,0,0c1.19,1.41,2.44,2.79,3.53,4.29.23.28.44.59.65.9a25,25,0,0,1,1.77,2.88c.77,1.55,1.78,7.16-2.58,5.12C140.53,319.31,140.14,314.82,139.91,312.6Z" style="fill: rgb(38, 50, 56); transform-origin: 142.904px 314.283px;" id="el8kt72kn2aob" class="animable"></path><path d="M138.91,307.31a.13.13,0,0,0,.16.11l.33-.11.12,0,0,0c.19-.06.38-.12.55-.19a23.24,23.24,0,0,0,9-6.14c1.55-1.77,2.66-4.91.35-6.66s-4.78.06-6.2,1.83a21.69,21.69,0,0,0-3.2,6c-.58,1.51-1.1,3-1.66,4.5v0A.54.54,0,0,0,138.91,307.31Zm2.69-5.65c.85-2.05,2.54-6.24,5.16-6.62,4.77-.66,2.19,4.39,1,5.65a24.63,24.63,0,0,1-2.53,2.25,63.83,63.83,0,0,1-5.56,3.77h0l-.21.13a.73.73,0,0,0,.09-.22,5.5,5.5,0,0,0,.28-.6C140.43,304.59,141,303.12,141.6,301.66Z" style="fill: rgb(38, 50, 56); transform-origin: 144.544px 300.516px;" id="el331l2p8k87m" class="animable"></path><path d="M321.67,216.87v0c-.26.77-1.75,13.17-5.68,23.44-2.86,7.51-5.68,14.08-6.94,14.65-1.43.64-8.27,2.8-10.56,3.47,0,0-20.92,67.65-30.92,77.33-16,15.5-107.75-17.4-107.75-17.4l22.09-41.46s58,18.91,60.18,15.38C250.83,278,262,246.13,262,246.13a75,75,0,0,1,2-11.38c2-6.74,6.36-15.22,11.41-22.94Z" style="fill: rgb(55, 71, 79); transform-origin: 240.745px 275.86px;" id="eli2kg5ge4ucs" class="animable"></path><path d="M170.4,318.44c3.36-6.22,2.48-4.39,5.76-10.65,1.61-3.06,12.15-23.18,13.15-26.3,0-.07-.09-.13-.13-.07-2,2.63-12.14,22.94-13.68,26-3.16,6.32-2.19,4.54-5.28,10.89A.1.1,0,0,0,170.4,318.44Z" style="fill: rgb(38, 50, 56); transform-origin: 179.755px 299.941px;" id="elcpaz5kw0m6v" class="animable"></path><path d="M272.76,238.39c1.2-.17,5.66-.29,6.64-.39a12.18,12.18,0,0,0,5.34-1.58c3.34-2.17,7.46-10.67,7.75-11.3,0-.09.19,0,.14.06-.24.42-3,8.27-5.06,10.51a11.45,11.45,0,0,1-8.59,3.45,46.94,46.94,0,0,1-6.22-.43A.16.16,0,0,1,272.76,238.39Z" style="fill: rgb(38, 50, 56); transform-origin: 282.619px 232.114px;" id="elkn9jphq2gr" class="animable"></path><path d="M322,238.48a5.65,5.65,0,0,1-4.69-3.52c-.92-2.37-1.3-10-1.31-10.56,0-.09-.08-.05-.07,0,0,.38-.16,7.32.32,9.5.52,2.39,1.67,3.66,3,4.2a10.82,10.82,0,0,0,2.68.62C322,238.74,322.05,238.5,322,238.48Z" style="fill: rgb(38, 50, 56); transform-origin: 318.962px 231.534px;" id="elzuxeff6kbje" class="animable"></path><path d="M308.7,254.63a86.11,86.11,0,0,0-14.14,4.76.15.15,0,0,0,.09.29c4.75-1.44,9.57-2.78,14.23-4.48A.3.3,0,0,0,308.7,254.63Z" style="fill: rgb(38, 50, 56); transform-origin: 301.76px 257.155px;" id="elvkfdno6hxto" class="animable"></path><path d="M313.52,223.76c0-.16-.26-.22-.28,0a148.93,148.93,0,0,1-2.45,15c-.47,2.31-3.78,15-7.72,13.6-.66-.23-.93-.93-.93-2a16.33,16.33,0,0,1,1-3.89c.75-2.65,1.41-5.32,1.95-8a74.57,74.57,0,0,0,1.54-15.27.14.14,0,0,0-.27,0,139.86,139.86,0,0,1-3.58,20.92c-.88,3.29-3.13,8.15.32,9.06s6.77-7.27,7.46-9.54A77.62,77.62,0,0,0,313.52,223.76Z" style="fill: rgb(38, 50, 56); transform-origin: 307.382px 238.174px;" id="els1cfk4ffzy" class="animable"></path><path d="M303.14,252.71a21.44,21.44,0,0,0-1.21,2.57,6.21,6.21,0,0,0-.62,2.16.16.16,0,0,0,.27.09,8,8,0,0,0,1.18-2c.4-.79.81-1.58,1.19-2.38A.45.45,0,0,0,303.14,252.71Z" style="fill: rgb(38, 50, 56); transform-origin: 302.658px 255.023px;" id="elyhii4c29csp" class="animable"></path><path d="M275.41,213a127.92,127.92,0,0,0-8.54,31.47c-2.92,9.11-6,18.16-9.25,27.17-2.43,6.74-4.88,13.48-7.73,20.06-1.31,2.72-2.27,5.72-4.39,8-1.68.89-3.77.55-5.58.47-7.16-.73-14.12-2.61-21-4.45-9.21-2.51-18.32-5.41-27.36-8.48q13.68,4.27,27.52,7.9c4.61,1.2,9.25,2.3,13.93,3.2a44.58,44.58,0,0,0,10.53,1.08A3.94,3.94,0,0,0,245,299c1.89-2.14,2.88-5.07,4.1-7.67,2.79-6.58,5.28-13.29,7.74-20,3.23-8.87,6.43-18.26,9.42-27A121.13,121.13,0,0,1,275.41,213Z" style="fill: rgb(38, 50, 56); transform-origin: 233.485px 256.65px;" id="elqqw9swfgb4" class="animable"></path><path d="M320.89,209.08,322.41,221,271,219.33s7.29-37.78,22.11-52.08c7.42-7.15,13.31-6.23,18.21-.63,1.24,1.41,13.38,20.47,14.57,28.52C326.89,202.23,320.89,209.08,320.89,209.08Z" style="fill: rgb(0, 255, 136); transform-origin: 298.501px 191.577px;" id="elfv9valj739h" class="animable"></path><path d="M321,185.76c-1.19-.33-2.26.48-3.05,1.57a9.53,9.53,0,0,0-1.47,2.6c-.21.61-.32,1.5.48,1.72s1.91-.64,2.45-1.17S323.32,186.41,321,185.76Zm-5-11.86c-.17.11-.33.24-.5.37-2.29,1.82-2.81,3.7-2.24,4.26,1.13,1.09,3.28,0,4.76-1.19C317.32,176.14,316.64,175,316,173.9Zm-4.7-7.28h0a5.51,5.51,0,0,0-2.17,1.44,10.76,10.76,0,0,0-2.95,5.3c-.18.84-.32,2.05.22,2.65s1.26.71,2.14.25a10.09,10.09,0,0,0,4.08-4.74,17,17,0,0,0,.81-1.78C312.34,168.06,311.56,166.92,311.29,166.62Zm-16.5,18.49c-1,.28-1.36,1.3-1.44,2.4a7.8,7.8,0,0,0,.1,2.44c.12.51.42,1.18,1.07,1s1.06-1.27,1.21-1.87C295.91,188.31,296.71,184.55,294.79,185.11Zm-1.33,30.53c-.91-.09-2.18,1.64-2.21,4.33l4,.12a1.09,1.09,0,0,0,0-.18C295.23,218.43,294.57,215.75,293.46,215.64Zm-9.68,1.69a2.44,2.44,0,0,0-1.41,2.36l4.62.14C286.36,218.5,285.4,216.76,283.78,217.33Zm13.59-21.22c-.89-.4-1.64.15-2.2,1a9.14,9.14,0,0,0-1.42,3.29c-.14.72-.36,2,.32,2.51s1.55-.08,2-.61C297,201.32,299.36,197,297.37,196.11Zm-5.63,12.27c-.19-1.2-.82-2.54-2.24-1.95s-2.05,2.75-2.22,4.22a10.48,10.48,0,0,0,.12,3.59,2.91,2.91,0,0,0,.83,1.71c1.32,1.1,2.06-.87,2.48-1.84A10.62,10.62,0,0,0,291.74,208.38Zm8.87-6.55a3.52,3.52,0,0,0-2.59,2.09,11,11,0,0,0-1.9,4.59c-.15.91-.16,2.3,1,2.43s2.4-1.6,3-2.48S303.56,201.53,300.61,201.83ZM286.8,191c-.19-.79-.64-2.35-1.56-2.57s-1.36,1-1.57,1.62a8.71,8.71,0,0,0,.13,5.85c.26,1.24.82,2.26,1.87,1.84.86-.34,1.07-2,1.2-2.74A10,10,0,0,0,286.8,191Z" style="fill: rgb(38, 50, 56); transform-origin: 302.091px 193.355px;" id="elii7oa72g12j" class="animable"></path><path d="M315.79,205.11a32.36,32.36,0,0,0-6.18,1.23c-1,.32-2,.7-3,1.11-.49.21-1,.39-1.49.57a5.57,5.57,0,0,1-1.59.37s0,.09,0,.09a7.72,7.72,0,0,0,1.52,0,9.44,9.44,0,0,0,1.47-.33c1-.32,2-.69,3.06-1,2.07-.66,4.14-1.32,6.23-1.78C315.91,205.32,315.89,205.1,315.79,205.11Z" style="fill: rgb(38, 50, 56); transform-origin: 309.703px 206.814px;" id="el2sba7fjgw06" class="animable"></path><path d="M320.86,207.63a35.51,35.51,0,0,0-5.14-.42,22.16,22.16,0,0,0-2.57.16c-.41,0-.82.1-1.22.16s-.9.21-1.35.27c0,0-.05.11,0,.1.43,0,.86,0,1.28,0l1.29,0c.85,0,1.71,0,2.57,0,1.71,0,3.42-.07,5.14,0C321,207.82,320.94,207.64,320.86,207.63Z" style="fill: rgb(38, 50, 56); transform-origin: 315.751px 207.555px;" id="elfydcr0dq8vb" class="animable"></path><path d="M300.14,165.55c.27,1,5.3,7.44,9.93,7.08,1.5-.12,1.22-8.37,1.22-8.37l.12-.61,1.65-8.6-10.23-6.12-1.47-.81s-.3,2.38-.63,5.35c0,.14,0,.27-.05.42s-.05.33-.07.48c-.05.45-.11.9-.15,1.35s-.08.68-.1,1-.06.71-.1,1.08A56,56,0,0,0,300.14,165.55Z" style="fill: rgb(235, 148, 129); transform-origin: 306.56px 160.382px;" id="eltdfb0a500po" class="animable"></path><path d="M313.06,155.05l-1.59,8.26a18.77,18.77,0,0,1-10.85-9l.1-.83c.35-3,.64-5.35.64-5.35l1.47.8Z" style="fill: rgb(38, 50, 56); transform-origin: 306.84px 155.72px;" id="elh57jd0f0k39" class="animable"></path><path d="M322.81,138.94c4.35,14.72-4,19-7.15,19.93-2.88.85-12.81,3.37-18.66-10.82s-.39-20.88,6.1-23.17S318.45,124.21,322.81,138.94Z" style="fill: rgb(235, 148, 129); transform-origin: 309.275px 141.815px;" id="elrb8sipgi3qo" class="animable"></path><path d="M320.31,137.88c-.36,0-.7,0-1.06,0a1.77,1.77,0,0,1-1.09-.18.55.55,0,0,1-.15-.65,1.37,1.37,0,0,1,1.23-.62,2,2,0,0,1,1.37.4A.58.58,0,0,1,320.31,137.88Z" style="fill: rgb(38, 50, 56); transform-origin: 319.407px 137.162px;" id="el6tzf9qpizqi" class="animable"></path><path d="M310.14,140a10.33,10.33,0,0,0,.95-.45,1.74,1.74,0,0,0,.9-.65.56.56,0,0,0-.16-.65,1.37,1.37,0,0,0-1.37,0,2,2,0,0,0-1,1A.58.58,0,0,0,310.14,140Z" style="fill: rgb(38, 50, 56); transform-origin: 310.732px 139.041px;" id="el2527ua9jrre" class="animable"></path><path d="M313,142.46s-.06.06-.05.11c.29,1,.47,2.2-.36,2.77,0,0,0,.07,0,.06C313.66,145,313.41,143.36,313,142.46Z" style="fill: rgb(38, 50, 56); transform-origin: 312.971px 143.93px;" id="ellc44i82iwhg" class="animable"></path><path d="M311.79,141.64c-1.66.3-.93,3.59.61,3.31S313.18,141.38,311.79,141.64Z" style="fill: rgb(38, 50, 56); transform-origin: 312.048px 143.296px;" id="eln9etpt8pzs" class="animable"></path><path d="M311.18,142c-.24.25-.45.64-.79.75s-.77-.15-1.11-.42c0,0-.06,0,0,.05.13.63.52,1.23,1.22,1.17s.95-.7,1-1.37C311.42,142,311.28,141.85,311.18,142Z" style="fill: rgb(38, 50, 56); transform-origin: 310.377px 142.746px;" id="eliyigzmakssi" class="animable"></path><path d="M318.66,141.06s.1,0,.1.08c.21,1,.62,2.16,1.62,2.29,0,0,0,0,0,0C319.22,143.59,318.69,142.07,318.66,141.06Z" style="fill: rgb(38, 50, 56); transform-origin: 319.52px 142.251px;" id="eldw1qzidjhms" class="animable"></path><path d="M319.33,139.79c1.6-.51,2.5,2.75,1,3.22S318,140.21,319.33,139.79Z" style="fill: rgb(38, 50, 56); transform-origin: 319.88px 141.396px;" id="el3vl117owh3r" class="animable"></path><path d="M320.06,139.82c.31.1.65.34,1,.28s.53-.5.67-.9c0,0,0,0,.06,0,.18.62.16,1.32-.41,1.61s-1.06-.17-1.38-.75C319.9,140,319.94,139.78,320.06,139.82Z" style="fill: rgb(38, 50, 56); transform-origin: 320.917px 140.05px;" id="el3vagvrrzh9" class="animable"></path><path d="M314.51,151a1.55,1.55,0,0,0,1,.34,2.63,2.63,0,0,0,1-.57,0,0,0,0,1,.06,0,1.4,1.4,0,0,1-1.11.92,1.11,1.11,0,0,1-1.05-.65C314.4,151,314.47,150.93,314.51,151Z" style="fill: rgb(38, 50, 56); transform-origin: 315.49px 151.23px;" id="elsgd6wizw2u" class="animable"></path><path d="M314.46,148.07a3.48,3.48,0,0,0,2.68.79,4.25,4.25,0,0,0,1.21-.32,1.12,1.12,0,0,0,.22-.1l.21-.1a.26.26,0,0,0,.13-.28h0a.3.3,0,0,0,0-.1h0l0-.08c-.21-.76-.64-1.88-.64-1.88.31,0,1.91.24,1.77-.14a53,53,0,0,0-4.44-9.66.09.09,0,0,0-.17.08c1,3.11,2.62,6,3.72,9.13a6.16,6.16,0,0,0-1.72,0c-.09.07.87,2.15.94,2.5a.1.1,0,0,1,0,0,4.84,4.84,0,0,1-3.78,0C314.43,147.93,314.38,148,314.46,148.07Z" style="fill: rgb(38, 50, 56); transform-origin: 317.236px 142.517px;" id="elziocigo6s7d" class="animable"></path><path d="M317.62,148.52a3.42,3.42,0,0,1-1.12,1.38,1.52,1.52,0,0,1-.92.28c-.72,0-.88-.63-.88-1.19a4.07,4.07,0,0,1,.11-.89A4.59,4.59,0,0,0,317.62,148.52Z" style="fill: rgb(38, 50, 56); transform-origin: 316.16px 149.14px;" id="elz2x8ev5x98m" class="animable"></path><path d="M316.5,149.9a1.52,1.52,0,0,1-.92.28c-.72,0-.88-.63-.88-1.19A1.62,1.62,0,0,1,316.5,149.9Z" style="fill: rgb(255, 154, 187); transform-origin: 315.6px 149.568px;" id="el657b6aswrik" class="animable"></path><path d="M298.38,148.72c2.88-.24,2.24-6.81,2.24-6.81s11.5-4.54,10.47-14.47a16.81,16.81,0,0,0,10.19,7.25s-2.67-10.57-11.55-10.85c0,0-11.28-1.6-15.41,7.95S296.45,148.87,298.38,148.72Z" style="fill: rgb(38, 50, 56); transform-origin: 307.109px 136.231px;" id="elisqqa5i9xn" class="animable"></path><path d="M311,126.72a10.85,10.85,0,0,1,.4,4.54,11.22,11.22,0,0,1-1.42,4.4,10.29,10.29,0,0,1-.64,1l-.33.48c-.12.15-.25.29-.38.43s-.52.58-.79.86l-.88.74-.45.37-.48.31-1,.63c-.68.35-1.37.67-2.06,1,.62-.44,1.27-.82,1.88-1.26l.89-.69.44-.34c.14-.12.26-.26.4-.39l.8-.77c.25-.27.48-.57.72-.85l.35-.42.31-.46a9.77,9.77,0,0,0,.59-.93,13,13,0,0,0,1.5-4.13,13.7,13.7,0,0,0,.23-2.22A14.14,14.14,0,0,0,311,126.72Z" style="fill: rgb(38, 50, 56); transform-origin: 307.226px 134.1px;" id="elfi6k2716cz" class="animable"></path><path d="M311.1,149.14a5.31,5.31,0,1,1,3.92-7.42h0a5.33,5.33,0,0,1-2.66,7A5.91,5.91,0,0,1,311.1,149.14Zm-1.72-9.76a4.28,4.28,0,0,0-1.09.33,4.62,4.62,0,1,0,1.09-.33Z" style="fill: rgb(0, 255, 136); transform-origin: 310.173px 143.91px;" id="elfvawescn5ag" class="animable"></path><path d="M322.76,145.58c-2,.35-4.18-1.38-5-4a6.34,6.34,0,0,1,0-3.88,3.31,3.31,0,0,1,5.43-1.63,6.37,6.37,0,0,1,2.14,3.23c.84,2.81-.18,5.6-2.26,6.23Zm-2.25-9.64-.26.06a2.82,2.82,0,0,0-1.79,1.9,5.61,5.61,0,0,0,0,3.44c.73,2.43,2.71,4,4.43,3.48s2.51-2.91,1.79-5.34a5.66,5.66,0,0,0-1.89-2.88A3,3,0,0,0,320.51,135.94Z" style="fill: rgb(0, 255, 136); transform-origin: 321.54px 140.418px;" id="elk0spq1tc0jk" class="animable"></path><path d="M315,142.36l-.59-.39c.58-.88,2.1-2.28,3.74-1.32l-.36.61C316.35,140.4,315.08,142.28,315,142.36Z" style="fill: rgb(0, 255, 136); transform-origin: 316.28px 141.343px;" id="elasnig0e6gh5" class="animable"></path><path d="M292.75,150.47l-.7-.13c.06-.33.64-3.2,2.09-3.91s10.72-2.53,11.12-2.61l.14.7c-2.69.54-9.91,2-10.95,2.55S292.9,149.68,292.75,150.47Z" style="fill: rgb(0, 255, 136); transform-origin: 298.725px 147.145px;" id="elbukf1k0qqr8" class="animable"></path><path d="M300.12,148s-4.25-4-6.14-2.42,2,7.9,4.66,8.33a2.6,2.6,0,0,0,3.13-2.07Z" style="fill: rgb(235, 148, 129); transform-origin: 297.625px 149.592px;" id="elb5qe3cxu9ts" class="animable"></path><path d="M295.13,147.37s0,.07,0,.07c1.9.36,3.16,1.8,4.15,3.35a1.44,1.44,0,0,0-2.18,0,.06.06,0,0,0,.06.09,1.62,1.62,0,0,1,1.84.19,7.62,7.62,0,0,1,1.11,1.23c.11.14.38,0,.28-.17l0,0C300,149.89,297.58,147.11,295.13,147.37Z" style="fill: rgb(38, 50, 56); transform-origin: 297.771px 149.855px;" id="el4uco3lmd4hv" class="animable"></path><path d="M300.3,178.11c9.09,3,41.66,7.73,49.39,2.89,11.39-7.13,21.44-14.71,29-22.37,2-2-16.4-22.92-20.21-18.88-7.21,7.63-17.41,19.48-21.64,21.34-2.35,1-23.45,3.26-36.79,5.15C289,167.81,288.8,174.32,300.3,178.11Z" style="fill: rgb(235, 148, 129); transform-origin: 335.28px 161.156px;" id="elzmv1iblobe" class="animable"></path><path d="M388.8,117.11c1.81,2.61-5,6.54-5,6.54a5.89,5.89,0,0,1,3.78,1.28c1.81,1.6.1,5.15.1,5.15a7.19,7.19,0,0,1,3.78,2c1.58,1.7.37,5.53.37,5.53a6.64,6.64,0,0,1,2.21,3.83c1,6.71-13.46,16.71-18.18,18.69l-19.71-16.9s6.73-16.15,12.44-20.43C371.75,120.42,386,113.11,388.8,117.11Z" style="fill: rgb(235, 148, 129); transform-origin: 375.12px 138.033px;" id="elk3nig503nb9" class="animable"></path><path d="M383.68,123.61a53.58,53.58,0,0,0-11.51,6c-.08.05,0,.18.08.13,3.58-2.33,7.86-3.76,11.52-5.93A.11.11,0,0,0,383.68,123.61Z" style="fill: rgb(38, 50, 56); transform-origin: 377.982px 126.677px;" id="el9hrxf5j99jo" class="animable"></path><path d="M387.4,129.88a11,11,0,0,0-2.52,1.53c-.86.6-1.7,1.22-2.54,1.85-1.67,1.27-3.31,2.57-4.91,3.92-.07.06,0,.18.08.12,1.67-1.25,3.35-2.49,5.07-3.67l2.59-1.76a13.27,13.27,0,0,0,2.38-1.75C387.65,130,387.54,129.82,387.4,129.88Z" style="fill: rgb(38, 50, 56); transform-origin: 382.495px 133.592px;" id="elno6nqpnfzi" class="animable"></path><path d="M391.74,137.65a7.9,7.9,0,0,0-2.19,1.5c-.75.59-1.5,1.18-2.26,1.76-1.51,1.17-3,2.33-4.57,3.45-.08,0,0,.18.08.12,1.58-1.12,3.18-2.22,4.75-3.36.77-.56,1.54-1.12,2.3-1.69a7.48,7.48,0,0,0,2-1.71A.05.05,0,0,0,391.74,137.65Z" style="fill: rgb(38, 50, 56); transform-origin: 387.273px 141.056px;" id="el76fvqnaomxe" class="animable"></path><path d="M327.2,161.68,333.79,186S312.39,182.88,300,179s-12.2-10.57-.33-13.67S327.2,161.68,327.2,161.68Z" style="fill: rgb(0, 255, 136); transform-origin: 312.264px 173.84px;" id="eljv3lardeu2d" class="animable"></path><path d="M329.46,170a11,11,0,0,0-2,.87c-.79.45-1.88,1.32-1.23,2.33s2.75.86,3.81.76a3,3,0,0,0,.46-.08Zm-4.52-5.59c-1.46-.79-3.43.15-4.68.94a10.39,10.39,0,0,0-2.72,2.34,3,3,0,0,0-.81,1.73c0,1.71,2,1.05,3,.77a10.68,10.68,0,0,0,5.1-2.81C325.64,166.45,326.29,165.11,324.94,164.37Zm-12.08,2.42c-1.33-.82-2.83.36-3.75,1.26a10.76,10.76,0,0,0-2.95,5.3c-.18.84-.32,2.05.22,2.65s1.26.71,2.14.25a10.09,10.09,0,0,0,4.08-4.74C313.23,170.23,314.59,167.85,312.86,166.79Zm7.41,6.46c-.51-.76-2.66-.67-4.78,1-2.29,1.82-2.81,3.7-2.24,4.26,1.14,1.1,3.33-.05,4.81-1.23C319.21,176.38,320.88,174.18,320.27,173.25Z" style="fill: rgb(38, 50, 56); transform-origin: 318.25px 171.553px;" id="elebil46t4mo5" class="animable"></path><path d="M322.3,163.81c.24.82.36,1.69.54,2.52s.38,1.68.59,2.51l1.17,4.84c.78,3.27,1.48,6.56,2.44,9.8,0,.05.1,0,.1,0a79.83,79.83,0,0,0-1.91-9.84q-.6-2.46-1.26-4.91c-.23-.83-.46-1.66-.73-2.48s-.61-1.64-.82-2.46C322.4,163.72,322.28,163.74,322.3,163.81Z" style="fill: rgb(38, 50, 56); transform-origin: 324.719px 173.624px;" id="elsjc8bgxu9rg" class="animable"></path><path d="M303.88,180.12c2.44.71,4.91,1.31,7.39,1.9s5,1.1,7.45,1.63,5,1,7.49,1.4,5,.8,7.57,1l.17,0-.05-.16c-.24-.79-.49-1.58-.75-2.36.17.81.35,1.61.53,2.42l.13-.14c-2.5-.43-5-.91-7.48-1.41L318.86,183c-2.5-.47-5-1-7.48-1.45S306.38,180.56,303.88,180.12Z" style="fill: rgb(38, 50, 56); transform-origin: 318.915px 183.085px;" id="ely11ejqmjsob" class="animable"></path><path d="M305.57,181.38a4.52,4.52,0,0,0,1.78.31,7,7,0,0,0,.91-.07,5.58,5.58,0,0,0,.88-.2A32.68,32.68,0,0,1,305.57,181.38Z" style="fill: rgb(38, 50, 56); transform-origin: 307.355px 181.536px;" id="elqogjfp4lr3p" class="animable"></path></g><defs>     <filter id="active" height="200%">         <feMorphology in="SourceAlpha" result="DILATED" operator="dilate" radius="2"></feMorphology>                <feFlood flood-color="#32DFEC" flood-opacity="1" result="PINK"></feFlood>        <feComposite in="PINK" in2="DILATED" operator="in" result="OUTLINE"></feComposite>        <feMerge>            <feMergeNode in="OUTLINE"></feMergeNode>            <feMergeNode in="SourceGraphic"></feMergeNode>        </feMerge>    </filter>    <filter id="hover" height="200%">        <feMorphology in="SourceAlpha" result="DILATED" operator="dilate" radius="2"></feMorphology>                <feFlood flood-color="#ff0000" flood-opacity="0.5" result="PINK"></feFlood>        <feComposite in="PINK" in2="DILATED" operator="in" result="OUTLINE"></feComposite>        <feMerge>            <feMergeNode in="OUTLINE"></feMergeNode>            <feMergeNode in="SourceGraphic"></feMergeNode>        </feMerge>            <feColorMatrix type="matrix" values="0   0   0   0   0                0   1   0   0   0                0   0   0   0   0                0   0   0   1   0 "></feColorMatrix>    </filter></defs></svg>